<svg width="191" height="45" viewBox="0 0 191 45" fill="none" xmlns="http://www.w3.org/2000/svg">
<g clip-path="url(#clip0_20_10)">
<mask id="mask0_20_10" style="mask-type:luminance" maskUnits="userSpaceOnUse" x="0" y="0" width="191" height="45">
<path d="M190.346 0H0.345734V45H190.346V0Z" fill="white"/>
</mask>
<g mask="url(#mask0_20_10)">
<path d="M25.904 24.2696C25.7953 23.2656 25.7612 22.2548 25.8019 21.2456C25.7955 20.6375 25.7908 20.0282 25.7873 19.553C24.7488 19.1705 23.6523 18.9759 22.5477 18.9783H22.4075C21.3033 18.9794 20.2075 19.1745 19.1686 19.5548C19.165 20.0318 19.1598 20.6381 19.1533 21.2456C19.1945 22.2548 19.1604 23.2657 19.0513 24.2696C18.8829 25.1363 18.5409 25.9586 18.0465 26.6852C17.5522 27.4118 16.916 28.0271 16.1776 28.4931C18.668 29.7897 20.874 31.5863 22.6621 33.7742C23.2808 33.1482 24.0168 32.4327 24.8185 31.7102C26.0838 30.5343 27.4587 29.4864 28.9236 28.5813C28.1483 28.1211 27.478 27.4986 26.9573 26.755C26.4366 26.0114 26.0774 25.1638 25.9034 24.2684" fill="#25AAE1"/>
<path d="M42.8707 13.7419C40.7343 8.58272 36.7883 4.41467 31.799 2.04691C26.8096 -0.320849 21.1328 -0.71938 15.8707 0.928689C10.6086 2.57676 6.13652 6.15384 3.3228 10.9655C0.509071 15.7771 -0.445588 21.48 0.644155 26.967C1.7339 32.4539 4.79029 37.3335 9.21997 40.6584C13.6496 43.9832 19.1365 45.5161 24.6154 44.9594C30.0943 44.4028 35.1743 41.7963 38.8692 37.646C42.564 33.4957 44.6101 28.0978 44.6101 22.5001C44.6141 19.4916 44.0225 16.5131 42.8707 13.7419ZM22.4779 44.4068C18.0331 44.412 13.6967 43.0121 10.0691 40.401C10.5439 40.6457 11.0828 40.7307 11.6082 40.6436C12.1335 40.5565 12.618 40.3019 12.9917 39.9166C13.3654 39.5312 13.6089 39.0351 13.6871 38.4998C13.7653 37.9646 13.674 37.4179 13.4266 36.9388C12.6199 35.5303 12.0454 33.9971 11.7259 32.4C11.7431 32.3215 11.7819 32.2497 11.8379 32.193C11.894 32.1362 11.9647 32.097 12.042 32.0798C12.8393 32.2436 13.6082 32.5273 14.3233 32.9216C15.8223 33.7128 18.1053 35.3547 20.457 38.6935C20.675 39.0048 20.9594 39.262 21.289 39.4458C21.6185 39.6297 21.9846 39.7355 22.36 39.7553C22.4064 39.7553 22.4515 39.7595 22.4973 39.7595C22.8507 39.7593 23.2002 39.6833 23.5228 39.5363C23.8454 39.3894 24.1338 39.1749 24.3692 38.9069C25.5062 37.6418 26.7057 36.4364 27.963 35.2951C31.2366 32.3505 32.6353 32.0923 32.85 32.0697C32.9354 32.0778 33.0162 32.1126 33.0814 32.1693C33.1466 32.2259 33.193 32.3017 33.2141 32.3863C32.9293 33.9743 32.406 35.5084 31.6624 36.9347C31.4281 37.3862 31.3325 37.8988 31.3878 38.4062C31.4431 38.9137 31.6469 39.3925 31.9728 39.7809C32.2987 40.1694 32.7316 40.4495 33.2158 40.5851C33.6999 40.7207 34.2129 40.7056 34.6885 40.5417C31.1003 43.0633 26.8406 44.4116 22.4785 44.4062M33.8815 40.0826C33.5499 40.0822 33.2239 39.9947 32.9353 39.8286C32.6466 39.6625 32.4051 39.4234 32.234 39.1345C32.063 38.8457 31.9682 38.5168 31.9589 38.1797C31.9495 37.8427 32.026 37.5089 32.1808 37.2107C32.9611 35.7134 33.507 34.1016 33.7988 32.4334L33.8059 32.3886L33.7994 32.3439C33.7664 32.1107 33.6541 31.8966 33.4821 31.7388C33.3101 31.5809 33.0891 31.4891 32.8576 31.4794H32.8412H32.8247C32.443 31.5075 30.9352 31.8324 27.576 34.8539C26.3004 36.0095 25.0844 37.2313 23.9329 38.5146C23.7525 38.7205 23.5314 38.8854 23.284 38.9984C23.0366 39.1114 22.7685 39.17 22.4973 39.1704C22.4627 39.1704 22.4287 39.1704 22.3923 39.1674C22.1037 39.1522 21.8223 39.0707 21.5691 38.9291C21.3159 38.7876 21.0975 38.5896 20.9303 38.35C18.5111 34.9141 16.1466 33.2156 14.5889 32.3952C13.8061 31.961 12.9611 31.6544 12.0848 31.4866L12.0455 31.4794L12.0056 31.4842C11.7869 31.5129 11.5836 31.614 11.4271 31.7718C11.2705 31.9297 11.1694 32.1356 11.1394 32.3576L11.1347 32.3958L11.1394 32.4339C11.2262 33.1082 11.5716 34.6262 12.9099 37.2143C13.1475 37.6739 13.1958 38.2106 13.0441 38.7063C12.8924 39.2021 12.5533 39.6163 12.1012 39.8578C11.6491 40.0994 11.1212 40.1484 10.6335 39.9943C10.1459 39.8401 9.73845 39.4953 9.50087 39.0357C9.40703 38.8568 9.30851 38.6595 9.20764 38.455C8.80648 37.6509 8.44651 36.8262 8.12915 35.9843C7.8846 35.3285 7.70221 34.6876 7.5427 34.0926C7.37635 33.5346 7.291 32.955 7.28935 32.3719C7.29902 31.7617 7.4224 31.1588 7.65295 30.5953C7.96403 29.8373 8.4558 29.17 9.0839 28.6534L9.45982 28.3458L9.01704 28.1508C6.96098 27.198 5.02717 25.9933 3.25865 24.5635C2.94006 24.3141 2.70629 23.9695 2.59015 23.5781C2.47402 23.1867 2.48135 22.7681 2.61111 22.3812C2.74087 21.9942 2.98655 21.6583 3.31368 21.4206C3.6408 21.1828 4.03295 21.0551 4.43508 21.0555C4.85938 21.0568 5.2715 21.1999 5.60798 21.4627C9.98117 24.8872 12.527 25.2193 12.8026 25.2491H12.9076H12.9193C13.4878 25.2263 14.0254 24.9803 14.4192 24.5628C14.8129 24.1452 15.0321 23.5888 15.0305 23.0104V6.87425C15.0305 6.35505 15.2334 5.85712 15.5945 5.49C15.9557 5.12287 16.4455 4.91662 16.9562 4.91662C17.4669 4.91662 17.9567 5.12287 18.3178 5.49C18.6789 5.85712 18.8818 6.35505 18.8818 6.87425V8.7642L19.4043 8.07499C19.7634 7.59891 20.2226 7.21043 20.7483 6.93797C21.2741 6.6655 21.8531 6.51594 22.443 6.50023C23.0329 6.48451 23.6188 6.60304 24.1578 6.84713C24.6969 7.09123 25.1755 7.45473 25.5586 7.91104L26.0717 8.51916V6.87425C26.0717 6.35505 26.2746 5.85712 26.6357 5.49C26.9968 5.12287 27.4866 4.91662 27.9973 4.91662C28.508 4.91662 28.9978 5.12287 29.359 5.49C29.7201 5.85712 29.923 6.35505 29.923 6.87425V23.0134C29.9215 23.5918 30.1406 24.1482 30.5343 24.5657C30.9281 24.9832 31.4657 25.2293 32.0342 25.2521H32.1222H32.1503C32.4306 25.2193 34.9805 24.8825 39.3449 21.4633C39.6813 21.2003 40.0935 21.0571 40.5178 21.0561C40.9199 21.0556 41.312 21.1831 41.6392 21.4207C41.9664 21.6582 42.2123 21.9939 42.3423 22.3807C42.4724 22.7675 42.4801 23.1859 42.3644 23.5774C42.2487 23.9688 42.0154 24.3137 41.6972 24.5635C39.9216 25.9992 37.9794 27.208 35.9142 28.1628L35.4737 28.3559L35.8456 28.6642C35.9793 28.7749 36.1073 28.8925 36.2291 29.0165C36.68 29.4716 37.0373 30.0133 37.2803 30.6102C37.5232 31.207 37.6469 31.847 37.6442 32.493V32.5615C37.5724 33.6405 37.3425 34.7025 36.9622 35.7125L36.924 35.8317C36.567 36.937 36.1189 38.0098 35.5846 39.0387C35.4215 39.3535 35.1768 39.6172 34.8771 39.801C34.5774 39.9849 34.2339 40.0821 33.8839 40.082M35.9282 39.605C35.9931 39.5127 36.0519 39.4161 36.1042 39.3159C36.6537 38.2574 37.1146 37.1537 37.4818 36.0165L37.5205 35.8973C37.921 34.8293 38.1603 33.7059 38.2301 32.5651V32.493C38.2335 31.7691 38.0953 31.0519 37.8235 30.3829C37.5516 29.7139 37.1516 29.1065 36.6467 28.5962L36.5663 28.5163C38.5183 27.5653 40.3601 26.3965 42.0579 25.0315C42.4727 24.7064 42.777 24.2575 42.9281 23.7477C43.0793 23.2378 43.0697 22.6927 42.9007 22.1887C42.7317 21.6847 42.4118 21.2471 41.9859 20.9373C41.5599 20.6275 41.0492 20.4609 40.5255 20.4611C39.9717 20.462 39.4335 20.6483 38.9942 20.9911C34.8228 24.26 32.4353 24.6219 32.1157 24.6565H32.0606C31.6434 24.6388 31.2491 24.4575 30.9605 24.1508C30.6718 23.844 30.5112 23.4355 30.5123 23.011V6.87425C30.5123 6.19772 30.248 5.5489 29.7774 5.07053C29.3069 4.59215 28.6687 4.3234 28.0032 4.3234C27.3377 4.3234 26.6995 4.59215 26.229 5.07053C25.7584 5.5489 25.4941 6.19772 25.4941 6.87425V7.0078C24.6486 6.27677 23.569 5.88582 22.4594 5.90878C21.3497 5.93173 20.2867 6.36702 19.4712 7.1324V6.87425C19.4611 6.20447 19.1923 5.5656 18.7229 5.09558C18.2534 4.62556 17.6209 4.3621 16.962 4.3621C16.3031 4.3621 15.6707 4.62556 15.2012 5.09558C14.7317 5.5656 14.463 6.20447 14.4529 6.87425V23.0134C14.454 23.4377 14.2936 23.846 14.0052 24.1528C13.7168 24.4595 13.3228 24.6409 12.9058 24.6589H12.8472C12.5293 24.6249 10.146 24.2678 5.96807 20.9935C5.52875 20.6506 4.99065 20.4644 4.43683 20.4634C3.91336 20.4634 3.40299 20.6299 2.97722 20.9395C2.55145 21.2491 2.2316 21.6863 2.06248 22.19C1.89336 22.6936 1.88343 23.2384 2.0341 23.7481C2.18476 24.2577 2.48847 24.7067 2.90267 25.0321C4.5936 26.3915 6.42749 27.5562 8.37077 28.505C7.83002 29.0319 7.40198 29.6666 7.11341 30.3693C6.85388 31.0015 6.71458 31.678 6.70289 32.363C6.70276 33.0028 6.79503 33.6392 6.97677 34.2518C7.14156 34.8599 7.32864 35.5169 7.5814 36.196C7.90603 37.057 8.27423 37.9003 8.68452 38.7227C8.78715 38.9301 8.88744 39.1287 8.98244 39.3129C9.09497 39.5314 9.23798 39.7322 9.40703 39.9091C5.83889 37.1426 3.20927 33.3127 1.88515 28.9539C0.561023 24.595 0.608446 19.9246 2.0208 15.5945C3.43315 11.2644 6.13997 7.49047 9.76354 4.79946C13.3871 2.10846 17.7466 0.634596 22.2338 0.583545C26.7209 0.532494 31.1118 1.9068 34.7937 4.51469C38.4756 7.12258 41.2648 10.8339 42.7721 15.1309C44.2794 19.4278 44.4296 24.0959 43.2018 28.4838C41.974 32.8717 39.4293 36.7605 35.923 39.6074" fill="#C34822"/>
<path d="M32.8183 28.6302H32.7925C32.3641 28.6324 31.9393 28.709 31.5363 28.8568C31.5146 28.8645 31.4929 28.8729 31.4712 28.8818C29.9165 29.3933 27.9859 30.6817 25.7081 32.7321C24.3962 33.9125 23.2655 35.0781 22.5717 35.8204C18.9357 31.0299 15.3689 29.4279 13.5034 28.8943C13.0637 28.7187 12.5953 28.6289 12.1229 28.6296H12.0813C11.3336 28.6474 10.6063 28.8808 9.9841 29.3027C9.3784 29.7257 8.90526 30.3171 8.62118 31.0061C8.44201 31.4459 8.34592 31.9162 8.33792 32.3922C8.3414 32.8726 8.41411 33.3499 8.55374 33.8088C8.71853 34.4157 8.89153 35.0149 9.11145 35.6057C9.41623 36.4134 9.76172 37.2047 10.1465 37.9762C10.2396 38.1646 10.3344 38.3522 10.431 38.539C10.5426 38.7412 10.7274 38.8911 10.9461 38.9569C11.1648 39.0227 11.4001 38.9991 11.602 38.8912C11.8038 38.7834 11.9563 38.5997 12.027 38.3792C12.0976 38.1588 12.0809 37.919 11.9804 37.7109C10.5143 34.8718 10.1594 33.1971 10.0815 32.4316C10.0957 31.8961 10.3129 31.3868 10.6876 31.0102C11.0622 30.6335 11.5655 30.4184 12.0924 30.4099C13.1379 30.5745 14.1467 30.9254 15.0722 31.4466C16.7318 32.3201 19.2436 34.1188 21.7847 37.7276C21.8611 37.8362 21.9605 37.9259 22.0757 37.9901C22.1908 38.0543 22.3187 38.0913 22.4498 38.0985H22.4967C22.6201 38.0984 22.7421 38.0718 22.8547 38.0204C22.9673 37.969 23.0679 37.894 23.15 37.8004C24.3288 36.4859 25.5739 35.2346 26.8804 34.0514C30.3405 30.9393 32.0876 30.4307 32.8265 30.4075C33.3585 30.4104 33.8685 30.6241 34.248 31.0032C34.6276 31.3822 34.8468 31.8968 34.8591 32.4375C34.5645 34.2803 33.9729 36.061 33.108 37.7079C33.0543 37.8113 33.0212 37.9243 33.0105 38.0406C32.9998 38.157 33.0117 38.2743 33.0456 38.3859C33.0795 38.4976 33.1347 38.6013 33.208 38.6913C33.2814 38.7812 33.3714 38.8556 33.4731 38.9102C33.5747 38.9647 33.6859 38.9984 33.8003 39.0093C33.9147 39.0202 34.0301 39.0081 34.14 38.9736C34.2498 38.9391 34.3518 38.883 34.4403 38.8085C34.5288 38.7339 34.602 38.6424 34.6556 38.539C35.1621 37.5636 35.5869 36.5464 35.9253 35.4984C36.2884 34.55 36.513 33.5528 36.5921 32.5383C36.5921 32.5204 36.5921 32.5025 36.5921 32.484C36.5891 31.4654 36.1909 30.4892 35.4841 29.7672C34.7774 29.0452 33.819 28.6358 32.8171 28.6278" fill="#F7941E"/>
<path d="M11.1283 27.7967C11.655 27.9905 12.2102 28.0924 12.7703 28.0984H12.8202H12.8401C14.0121 28.0942 15.1456 27.6726 16.0435 26.9069C16.9414 26.1411 17.5468 25.0797 17.7546 23.9071C17.8051 23.7944 17.8338 18.639 17.8338 18.639C19.2923 17.9632 20.8765 17.6135 22.4794 17.6135C24.0823 17.6135 25.6665 17.9632 27.125 18.639C27.125 18.639 27.1537 23.7944 27.2042 23.9071C27.4119 25.0797 28.0174 26.1411 28.9153 26.9069C29.8132 27.6726 30.9467 28.0942 32.1186 28.0984H32.1392H32.189C32.7492 28.0925 33.3043 27.9905 33.8311 27.7967C34.058 27.7305 34.3061 27.65 34.5753 27.5522C36.9152 26.6185 39.1 25.3248 41.0533 23.7163C41.1443 23.645 41.2206 23.5561 41.2779 23.4548C41.3351 23.3535 41.3722 23.2417 41.3869 23.1258C41.4017 23.0099 41.3939 22.8923 41.3639 22.7795C41.3339 22.6667 41.2824 22.561 41.2122 22.4684C41.142 22.3759 41.0546 22.2983 40.955 22.2401C40.8553 22.1819 40.7454 22.1442 40.6314 22.1292C40.5174 22.1142 40.4016 22.1222 40.2907 22.1527C40.1797 22.1831 40.0758 22.2355 39.9848 22.3069C35.1301 26.1118 32.3931 26.3092 32.1562 26.3217C32.1386 26.3217 32.1609 26.3217 32.1274 26.3217C31.2649 26.3206 30.438 25.9717 29.8282 25.3516C29.2183 24.7315 28.8753 23.8908 28.8744 23.014V6.87422C28.8774 6.75543 28.857 6.63722 28.8144 6.52657C28.7717 6.41593 28.7078 6.31508 28.6262 6.22997C28.5446 6.14486 28.4471 6.07722 28.3394 6.03104C28.2317 5.98485 28.116 5.96106 27.9991 5.96106C27.8822 5.96106 27.7665 5.98485 27.6588 6.03104C27.5511 6.07722 27.4536 6.14486 27.372 6.22997C27.2904 6.31508 27.2264 6.41593 27.1838 6.52657C27.1412 6.63722 27.1208 6.75543 27.1238 6.87422V16.7068C25.647 16.1229 24.0753 15.8272 22.4908 15.8351H22.4627C20.8782 15.8272 19.3065 16.123 17.8297 16.7068V6.87422C17.8297 6.63822 17.7375 6.41189 17.5733 6.24502C17.4092 6.07814 17.1865 5.98439 16.9544 5.98439C16.7223 5.98439 16.4996 6.07814 16.3355 6.24502C16.1713 6.41189 16.0791 6.63822 16.0791 6.87422V23.0116C16.0788 23.8883 15.7365 24.7292 15.1272 25.3497C14.5179 25.9702 13.6914 26.3198 12.829 26.3217C12.7956 26.3217 12.8178 26.3187 12.8003 26.3217C12.5657 26.3121 9.82341 26.1148 4.96933 22.3098C4.8783 22.2385 4.77434 22.1861 4.66339 22.1556C4.55244 22.1252 4.43667 22.1172 4.32269 22.1322C4.20871 22.1472 4.09876 22.1849 3.9991 22.2431C3.89945 22.3013 3.81205 22.3789 3.74189 22.4714C3.67173 22.564 3.62018 22.6696 3.5902 22.7824C3.56021 22.8952 3.55238 23.0129 3.56714 23.1288C3.58189 23.2447 3.61896 23.3565 3.67621 23.4578C3.73346 23.5591 3.80978 23.6479 3.90081 23.7193C5.85516 25.327 8.04098 26.6197 10.3817 27.5522C10.6509 27.65 10.899 27.7311 11.1259 27.7967" fill="#F7941E"/>
<path d="M22.5483 13.501C23.1254 13.501 23.6894 13.3271 24.1692 13.0012C24.649 12.6752 25.023 12.212 25.2438 11.67C25.4646 11.128 25.5224 10.5317 25.4099 9.95629C25.2973 9.38092 25.0194 8.85241 24.6114 8.4376C24.2033 8.02278 23.6835 7.74029 23.1175 7.62584C22.5515 7.51139 21.9649 7.57013 21.4318 7.79463C20.8987 8.01913 20.443 8.3993 20.1224 8.88707C19.8018 9.37484 19.6307 9.94831 19.6307 10.5349C19.6307 11.3216 19.9381 12.076 20.4852 12.6323C21.0324 13.1885 21.7745 13.501 22.5483 13.501Z" fill="#25AAE1"/>
<path d="M71.3565 4.31055V24.5152H64.6563V17.0686H58.4669V24.5152H51.769V4.31055H58.4692V11.4685H64.6586V4.31055H71.3565Z" fill="#25AAE1"/>
<path d="M92.5369 23.1874C89.9004 24.4087 87.03 25.0196 84.133 24.976C77.2621 24.976 73.7129 22.3492 73.7129 18.6837C73.7111 17.6827 74.009 16.7048 74.5669 15.8799C75.1248 15.055 75.9163 14.4222 76.8364 14.0656C76.1333 13.6917 75.546 13.1268 75.1399 12.4338C74.7339 11.7407 74.5249 10.9468 74.5363 10.1402C74.5363 6.84976 77.631 3.84789 84.5301 3.84789C87.0694 3.82654 89.5913 4.2767 91.9716 5.17623L90.1536 10.1408C88.4532 9.42017 86.6297 9.04739 84.7875 9.04378C82.3455 9.04378 81.2952 9.65011 81.2952 10.5736C81.2952 11.3242 81.7497 11.8149 83.1407 11.8149H88.9613V16.8373H82.6862C81.1533 16.8373 80.4718 17.3858 80.4718 18.2229C80.4718 19.1464 81.5509 19.7819 84.3899 19.7819C86.5399 19.7512 88.6555 19.2283 90.5793 18.2521L92.5369 23.1874Z" fill="#25AAE1"/>
<path d="M113.036 13.749V24.5152H106.336V20.4455H100.032V24.5152H93.4453V13.749C93.4453 7.42929 97.4485 3.84851 103.239 3.84851C109.03 3.84851 113.033 7.42571 113.033 13.749M106.333 15.3075V13.1719C106.333 10.5742 104.998 9.36157 103.181 9.36157C101.364 9.36157 100.029 10.5742 100.029 13.1719V15.3081L106.333 15.3075Z" fill="#25AAE1"/>
<path d="M116.102 4.31055H122.803V19.2334H131.775V24.5158H116.102V4.31055Z" fill="#25AAE1"/>
<path d="M142.676 9.44561V19.3771H145.657V24.5146H132.995V19.3771H135.976V9.44561H132.995V4.30994H145.657V9.44561H142.676Z" fill="#25AAE1"/>
<path d="M167.747 12.8255V24.5152H161.046V13.0276C161.046 10.4878 159.882 9.36155 158.094 9.36155C156.362 9.36155 154.971 10.5742 154.971 13.2583V24.5152H148.269V4.31113H154.771V6.47534C155.427 5.62006 156.274 4.93576 157.242 4.47899C158.21 4.02223 159.27 3.8061 160.336 3.84848C165.021 3.84848 167.747 7.05246 167.747 12.8255Z" fill="#25AAE1"/>
<path d="M183.958 13.8641H189.779V24.5152H185.406V23.2739C183.986 24.486 182.169 24.9767 180.069 24.9767C174.533 24.9767 170.019 21.3398 170.019 14.6725C170.019 8.20673 174.703 3.84851 181.262 3.84851C185.18 3.84851 188.332 5.23408 190.347 7.74528L186.06 11.5842C185.531 10.8943 184.856 10.3357 184.083 9.95062C183.311 9.56554 182.463 9.36411 181.603 9.36157C178.65 9.36157 176.776 11.2956 176.776 14.6147C176.776 18.1072 178.653 19.5793 181.007 19.5793C182.055 19.6026 183.085 19.3006 183.96 18.7136L183.958 13.8641Z" fill="#25AAE1"/>
<path d="M88.2916 28.2355V38.3488H87.2829V30.2584L83.3748 37.0628H82.8774L78.9693 30.3019V38.3506H77.9583V28.2355H78.825L83.1455 35.7333L87.4231 28.2355H88.2916Z" fill="#F7941E"/>
<path d="M96.9605 33.6419V38.3518H95.994V37.1672C95.715 37.5914 95.3292 37.9317 94.8768 38.1527C94.4244 38.3738 93.922 38.4674 93.4219 38.424C91.7305 38.424 90.6937 37.5297 90.6937 36.2133C90.6937 35.0429 91.4326 34.061 93.5785 34.061H95.9518V33.5989C95.9518 32.2986 95.227 31.5909 93.8347 31.5909C92.9274 31.5782 92.0453 31.8954 91.3476 32.4852L90.8931 31.7197C91.7592 31.0296 92.8343 30.6669 93.9344 30.6936C95.8697 30.6936 96.9611 31.6762 96.9611 33.6407M95.9524 36.0678V34.8253H93.6066C92.1569 34.8253 91.6883 35.403 91.6883 36.1835C91.6883 37.0646 92.3844 37.6143 93.5785 37.6143C94.0841 37.6454 94.5864 37.5125 95.013 37.2346C95.4395 36.9568 95.7683 36.5484 95.9518 36.0684" fill="#F7941E"/>
<path d="M103.47 30.6919V31.6887C103.385 31.6887 103.3 31.6744 103.229 31.6744C101.665 31.6744 100.713 32.688 100.713 34.4766V38.3483H99.7016V30.7497H100.668V32.2402C101.137 31.2267 102.089 30.6943 103.468 30.6943" fill="#F7941E"/>
<path d="M108.06 34.5343L106.3 36.181V38.3482H105.289V27.6285H106.298V34.8956L110.76 30.749H112.011L108.813 33.8553L112.309 38.3482H111.073L108.06 34.5343Z" fill="#F7941E"/>
<path d="M120.04 34.8671H113.788C113.809 35.2375 113.902 35.6 114.061 35.9337C114.221 36.2674 114.444 36.5658 114.717 36.8116C114.991 37.0573 115.309 37.2457 115.654 37.3658C116 37.4858 116.365 37.5353 116.729 37.5112C117.159 37.5248 117.586 37.4425 117.982 37.2703C118.377 37.0981 118.73 36.8401 119.016 36.5144L119.585 37.1791C119.048 37.7503 118.357 38.1479 117.6 38.3223C116.842 38.4966 116.05 38.44 115.324 38.1594C114.597 37.8788 113.968 37.3868 113.515 36.7448C113.063 36.1028 112.806 35.3393 112.778 34.5499C112.751 34.0484 112.826 33.5468 112.998 33.0761C113.171 32.6055 113.436 32.1758 113.779 31.814C114.121 31.4522 114.533 31.1659 114.989 30.973C115.446 30.78 115.936 30.6845 116.43 30.6925C118.533 30.6925 120.053 32.267 120.053 34.5499C120.053 34.6363 120.039 34.752 120.039 34.8677M113.786 34.1021H119.087C119.046 33.4161 118.749 32.7719 118.256 32.301C117.764 31.8301 117.113 31.5679 116.437 31.5679C115.761 31.5679 115.11 31.8301 114.618 32.301C114.125 32.7719 113.828 33.4161 113.786 34.1021Z" fill="#F7941E"/>
<path d="M126.051 37.8868C125.605 38.2508 125.045 38.4411 124.473 38.4234C124.179 38.4568 123.881 38.4227 123.602 38.3236C123.322 38.2245 123.068 38.063 122.858 37.8509C122.648 37.6388 122.488 37.3815 122.389 37.098C122.289 36.8145 122.254 36.512 122.285 36.2127V31.6184H120.949V30.7479H122.285V29.0869H123.294V30.7479H125.567V31.6148H123.294V36.1513C123.268 36.3333 123.282 36.5189 123.337 36.6942C123.392 36.8695 123.485 37.0299 123.609 37.1634C123.734 37.2969 123.886 37.3999 124.056 37.4648C124.225 37.5297 124.406 37.5547 124.587 37.5381C124.99 37.5484 125.384 37.4097 125.695 37.1475L126.051 37.8868Z" fill="#F7941E"/>
<path d="M135.459 34.5492C135.486 35.0574 135.408 35.5655 135.231 36.0416C135.055 36.5176 134.783 36.9513 134.433 37.3151C134.083 37.6789 133.663 37.9651 133.199 38.1554C132.734 38.3457 132.236 38.4362 131.736 38.421C131.175 38.4403 130.619 38.3124 130.122 38.0498C129.624 37.7872 129.201 37.3986 128.894 36.9215V41.1545H127.885V30.7496H128.851V32.2521C129.154 31.7566 129.581 31.3514 130.087 31.0774C130.594 30.8034 131.163 30.6704 131.736 30.6918C132.235 30.6761 132.732 30.7657 133.196 30.955C133.659 31.1442 134.079 31.429 134.429 31.7914C134.779 32.1538 135.051 32.586 135.228 33.0606C135.406 33.5353 135.484 34.0421 135.459 34.5492ZM134.451 34.5492C134.426 33.9947 134.242 33.4596 133.921 33.0106C133.6 32.5615 133.156 32.2182 132.645 32.0231C132.134 31.8281 131.578 31.79 131.045 31.9136C130.513 32.0371 130.028 32.3168 129.65 32.7181C129.273 33.1193 129.02 33.6244 128.922 34.1706C128.825 34.7168 128.887 35.2801 129.102 35.7905C129.316 36.301 129.674 36.7362 130.129 37.0421C130.585 37.3479 131.119 37.5111 131.665 37.5111C132.043 37.5164 132.419 37.4424 132.767 37.2937C133.116 37.1449 133.431 36.9248 133.692 36.6469C133.954 36.3689 134.156 36.0392 134.286 35.6783C134.417 35.3174 134.473 34.9331 134.451 34.5492Z" fill="#F7941E"/>
<path d="M138.53 27.6292H137.52V38.3488H138.53V27.6292Z" fill="#F7941E"/>
<path d="M146.985 33.6419V38.3518H146.018V37.1672C145.739 37.5914 145.353 37.9317 144.901 38.1527C144.448 38.3738 143.946 38.4675 143.446 38.424C141.755 38.424 140.718 37.5297 140.718 36.2133C140.718 35.0429 141.457 34.061 143.602 34.061H145.976V33.5989C145.976 32.2986 145.251 31.5909 143.859 31.5909C142.951 31.5782 142.069 31.8954 141.372 32.4852L140.917 31.7197C141.783 31.0295 142.858 30.6668 143.958 30.6936C145.894 30.6936 146.985 31.6762 146.985 33.6407M145.976 36.0678V34.8253H143.631C142.181 34.8253 141.712 35.403 141.712 36.1835C141.712 37.0646 142.409 37.6143 143.602 37.6143C144.108 37.6454 144.61 37.5125 145.037 37.2346C145.464 36.9568 145.792 36.5484 145.976 36.0684" fill="#F7941E"/>
<path d="M149.005 34.5493C148.989 34.0333 149.078 33.5194 149.266 33.04C149.455 32.5606 149.739 32.126 150.101 31.7637C150.462 31.4013 150.894 31.1191 151.368 30.9346C151.843 30.7501 152.349 30.6675 152.857 30.6919C153.432 30.6575 154.005 30.7784 154.519 31.0423C155.034 31.3062 155.47 31.7036 155.784 32.1943L155.031 32.7142C154.791 32.356 154.466 32.065 154.086 31.8681C153.706 31.6711 153.283 31.5746 152.857 31.5874C152.1 31.6118 151.382 31.9345 150.856 32.4872C150.329 33.04 150.034 33.7794 150.034 34.549C150.034 35.3186 150.329 36.058 150.856 36.6107C151.382 37.1635 152.1 37.4862 152.857 37.5106C153.282 37.5262 153.704 37.4324 154.084 37.238C154.464 37.0435 154.79 36.7546 155.031 36.3981L155.784 36.9186C155.468 37.407 155.031 37.8027 154.517 38.0663C154.004 38.3299 153.431 38.4522 152.857 38.421C152.349 38.4437 151.841 38.3594 151.367 38.1735C150.892 37.9875 150.461 37.7039 150.099 37.3404C149.738 36.9768 149.454 36.5413 149.266 36.061C149.077 35.5807 148.989 35.066 149.005 34.5493Z" fill="#F7941E"/>
<path d="M164.138 34.8671H157.885C157.907 35.2375 158 35.6 158.159 35.9337C158.319 36.2675 158.542 36.5658 158.815 36.8116C159.088 37.0573 159.407 37.2457 159.752 37.3658C160.098 37.4859 160.463 37.5353 160.827 37.5112C161.257 37.5248 161.684 37.4425 162.079 37.2703C162.474 37.0981 162.828 36.8401 163.114 36.5144L163.683 37.1791C163.146 37.7503 162.455 38.1479 161.697 38.3223C160.939 38.4966 160.148 38.44 159.421 38.1594C158.695 37.8788 158.066 37.3868 157.613 36.7448C157.16 36.1028 156.904 35.3393 156.876 34.5499C156.849 34.0484 156.924 33.5467 157.096 33.076C157.268 32.6053 157.534 32.1756 157.877 31.8138C158.219 31.452 158.632 31.1657 159.088 30.9728C159.544 30.7799 160.034 30.6845 160.528 30.6925C162.631 30.6925 164.152 32.267 164.152 34.5499C164.152 34.6363 164.138 34.752 164.138 34.8677M157.885 34.1022H163.186C163.144 33.4161 162.847 32.7719 162.355 32.301C161.862 31.8301 161.211 31.5679 160.535 31.5679C159.859 31.5679 159.209 31.8301 158.716 32.301C158.224 32.7719 157.926 33.4161 157.885 34.1022Z" fill="#F7941E"/>
</g>
</g>
<defs>
<clipPath id="clip0_20_10">
<rect width="190" height="45" fill="white" transform="translate(0.345734)"/>
</clipPath>
</defs>
</svg>
