<svg width="27" height="27" viewBox="0 0 27 27" fill="none" xmlns="http://www.w3.org/2000/svg">
<path d="M10.4062 0H1.96868C0.883095 0 0 0.883095 0 1.96868V7.03118C0 8.11697 0.883095 9.00007 1.96868 9.00007H10.4062C11.492 9.00007 12.3751 8.11697 12.3751 7.03118V1.96868C12.3751 0.883095 11.492 0 10.4062 0Z" fill="#352D39"/>
<path d="M10.4062 11.2499H1.96868C0.883095 11.2499 0 12.133 0 13.2188V25.0313C0 26.1169 0.883095 27 1.96868 27H10.4062C11.492 27 12.3751 26.1169 12.3751 25.0313V13.2188C12.3751 12.133 11.492 11.2499 10.4062 11.2499Z" fill="#352D39"/>
<path d="M25.0314 17.9999H16.5939C15.5081 17.9999 14.625 18.883 14.625 19.9688V25.0313C14.625 26.1169 15.5081 27 16.5939 27H25.0314C26.117 27 27.0001 26.1169 27.0001 25.0313V19.9688C27.0001 18.883 26.117 17.9999 25.0314 17.9999Z" fill="#352D39"/>
<path d="M25.0314 0H16.5939C15.5081 0 14.625 0.883095 14.625 1.96868V13.7812C14.625 14.867 15.5081 15.7501 16.5939 15.7501H25.0314C26.117 15.7501 27.0001 14.867 27.0001 13.7812V1.96868C27.0001 0.883095 26.117 0 25.0314 0V0Z" fill="#352D39"/>
</svg>
