<svg width="40" height="40" viewBox="0 0 40 40" fill="none" xmlns="http://www.w3.org/2000/svg">
<path d="M8 8C8 6.93913 8.42143 5.92172 9.17157 5.17157C9.92172 4.42143 10.9391 4 12 4H28C29.0609 4 30.0783 4.42143 30.8284 5.17157C31.5786 5.92172 32 6.93913 32 8V30C32 30.5304 31.7893 31.0391 31.4142 31.4142C31.0391 31.7893 30.5304 32 30 32H10C10 32.5304 10.2107 33.0391 10.5858 33.4142C10.9609 33.7893 11.4696 34 12 34H31C31.2652 34 31.5196 34.1054 31.7071 34.2929C31.8946 34.4804 32 34.7348 32 35C32 35.2652 31.8946 35.5196 31.7071 35.7071C31.5196 35.8946 31.2652 36 31 36H12C10.9391 36 9.92172 35.5786 9.17157 34.8284C8.42143 34.0783 8 33.0609 8 32V8ZM20 26C22.1217 26 24.1566 25.1571 25.6569 23.6569C27.1571 22.1566 28 20.1217 28 18C28 15.8783 27.1571 13.8434 25.6569 12.3431C24.1566 10.8429 22.1217 10 20 10C17.8783 10 15.8434 10.8429 14.3431 12.3431C12.8429 13.8434 12 15.8783 12 18C12 20.1217 12.8429 22.1566 14.3431 23.6569C15.8434 25.1571 17.8783 26 20 26ZM19 14C19.2652 14 19.5196 14.1054 19.7071 14.2929C19.8946 14.4804 20 14.7348 20 15V18H22C22.2652 18 22.5196 18.1054 22.7071 18.2929C22.8946 18.4804 23 18.7348 23 19C23 19.2652 22.8946 19.5196 22.7071 19.7071C22.5196 19.8946 22.2652 20 22 20H19C18.7348 20 18.4804 19.8946 18.2929 19.7071C18.1054 19.5196 18 19.2652 18 19V15C18 14.7348 18.1054 14.4804 18.2929 14.2929C18.4804 14.1054 18.7348 14 19 14Z" fill="#352D39"/>
</svg>
