<svg width="36" height="36" viewBox="0 0 36 36" fill="none" xmlns="http://www.w3.org/2000/svg">
<path d="M18 4.50452C17.4096 4.50452 16.8251 4.6208 16.2796 4.84672C15.7342 5.07264 15.2386 5.40377 14.8212 5.82122C14.4038 6.23866 14.0726 6.73424 13.8467 7.27966C13.6208 7.82508 13.5045 8.40966 13.5045 9.00002C13.5045 9.59037 13.6208 10.175 13.8467 10.7204C14.0726 11.2658 14.4038 11.7614 14.8212 12.1788C15.2386 12.5963 15.7342 12.9274 16.2796 13.1533C16.8251 13.3792 17.4096 13.4955 18 13.4955C19.1923 13.4955 20.3357 13.0219 21.1788 12.1788C22.0219 11.3357 22.4955 10.1923 22.4955 9.00002C22.4955 7.80774 22.0219 6.66429 21.1788 5.82122C20.3357 4.97815 19.1923 4.50452 18 4.50452ZM28.125 6.75002C27.2299 6.75002 26.3714 7.1056 25.7385 7.73853C25.1056 8.37147 24.75 9.22991 24.75 10.125C24.75 11.0201 25.1056 11.8786 25.7385 12.5115C26.3714 13.1444 27.2299 13.5 28.125 13.5C29.0201 13.5 29.8786 13.1444 30.5115 12.5115C31.1444 11.8786 31.5 11.0201 31.5 10.125C31.5 9.22991 31.1444 8.37147 30.5115 7.73853C29.8786 7.1056 29.0201 6.75002 28.125 6.75002ZM7.875 6.75002C6.9799 6.75002 6.12145 7.1056 5.48851 7.73853C4.85558 8.37147 4.5 9.22991 4.5 10.125C4.5 11.0201 4.85558 11.8786 5.48851 12.5115C6.12145 13.1444 6.9799 13.5 7.875 13.5C8.77011 13.5 9.62855 13.1444 10.2615 12.5115C10.8944 11.8786 11.25 11.0201 11.25 10.125C11.25 9.22991 10.8944 8.37147 10.2615 7.73853C9.62855 7.1056 8.77011 6.75002 7.875 6.75002ZM11.25 17.9843C11.2542 17.3903 11.493 16.822 11.9146 16.4034C12.3361 15.9849 12.906 15.75 13.5 15.75H22.5C23.0967 15.75 23.669 15.9871 24.091 16.409C24.5129 16.831 24.75 17.4033 24.75 18V24.75C24.7498 25.4581 24.639 26.1619 24.4215 26.8358C23.9233 28.3629 22.897 29.6623 21.5269 30.5008C20.1568 31.3393 18.5327 31.6619 16.9462 31.4106C15.3596 31.1594 13.9146 30.3508 12.8706 29.13C11.8266 27.9093 11.252 26.3563 11.25 24.75V17.9843ZM9 18C9 17.1788 9.21825 16.4115 9.603 15.75H4.5C3.90326 15.75 3.33097 15.9871 2.90901 16.409C2.48705 16.831 2.25 17.4033 2.25 18V23.625C2.24969 24.546 2.47551 25.4529 2.90761 26.2661C3.33972 27.0794 3.9649 27.7742 4.72825 28.2894C5.49159 28.8045 6.36976 29.1244 7.28563 29.2209C8.20149 29.3174 9.12705 29.1876 9.981 28.8428C9.3334 27.5751 8.99712 26.1713 9 24.7478V18ZM27 18V24.75C27 26.2238 26.6467 27.6143 26.019 28.8428C26.873 29.1876 27.7985 29.3174 28.7144 29.2209C29.6302 29.1244 30.5084 28.8045 31.2718 28.2894C32.0351 27.7742 32.6603 27.0794 33.0924 26.2661C33.5245 25.4529 33.7503 24.546 33.75 23.625V18C33.75 17.4033 33.5129 16.831 33.091 16.409C32.669 15.9871 32.0967 15.75 31.5 15.75H26.397C26.7795 16.4115 27 17.1788 27 18Z" fill="#352D39"/>
</svg>
