<?xml version="1.0" encoding="UTF-8"?><svg id="b" xmlns="http://www.w3.org/2000/svg" xmlns:xlink="http://www.w3.org/1999/xlink" viewBox="0 0 700.57 191.98"><defs><style>.f{fill:#fff;}.g{fill:url(#e);}.h{fill:url(#d);}</style><linearGradient id="d" x1="33.06" y1="33.21" x2="93.62" y2="183.99" gradientUnits="userSpaceOnUse"><stop offset="0" stop-color="red"/><stop offset="1" stop-color="#890000"/></linearGradient><linearGradient id="e" x1="153.44" y1="34.97" x2="104.88" y2="181.34" xlink:href="#d"/></defs><g id="c"><g><g><path class="h" d="M95.21,191.98l-56.5-37.26c-3.49-2.3-6.59-5.17-9.11-8.51-1.13-1.5-2.25-3.04-3.35-4.63C8.83,116.51,2.31,90.32,0,70.34,9.27,34.98,38.01,7.5,74.08,.04c-4.8,17.52-9.79,41.44-10.73,68.48-1.18,33.83,3.98,72.54,23.79,109.69,2.56,4.8,5.26,9.39,8.08,13.77Z"/><path class="g" d="M188.91,75.84h0c-2.83,19.16-9.66,42.91-25.53,65.75-1.45,2.09-2.93,4.09-4.42,6.02-2.47,3.2-5.47,5.94-8.84,8.17h0s-39.72,26.19-39.72,26.19l-15.18,10.02c2.08-3.38,4.09-6.87,6.02-10.49,2.39-4.47,4.56-8.97,6.53-13.48,14.41-32.9,18.29-66.41,17.26-96.15-.99-28.81-6.6-54.09-11.66-71.86,38,7.78,67.9,37.79,75.53,75.84Z"/><path class="f" d="M107.78,168.01c-1.5-6.93-3.34-14.09-5.59-21.45-9.69-31.66-24.18-57.61-38.85-78.04,.94-27.04,5.93-50.97,10.73-68.48,15.57,16,35.24,39.84,50.96,71.82,1.03,29.74-2.85,63.24-17.26,96.15Z"/></g><g><path class="f" d="M212.93,128.81v-56.16h13.15l19.2,30.84,7.18,15.12h-2.57l-2.27-21.24v-24.71h12.77v56.16h-14.13l-18.21-30.08-8.24-17.23h3.1l2.8,23.05v24.26h-12.77Z"/><path class="f" d="M295.62,129.42c-5.54,.1-10.27-1.03-14.19-3.38-3.92-2.36-6.89-5.72-8.92-10.09-2.03-4.37-2.99-9.53-2.89-15.48,.12-6.65,1.35-12.04,3.68-16.16s5.51-7.15,9.54-9.11c4.03-1.95,8.64-3,13.83-3.16,5.32-.15,9.88,.93,13.68,3.23,3.8,2.3,6.71,5.62,8.71,9.96,2,4.33,2.95,9.46,2.85,15.38-.13,6.65-1.31,12.08-3.55,16.29-2.24,4.21-5.32,7.32-9.22,9.33-3.91,2.02-8.42,3.07-13.53,3.17Zm.23-10.13c3.63,0,6.49-1.47,8.58-4.4,2.09-2.93,3.14-7.82,3.14-14.64,0-3.53-.4-6.63-1.21-9.3-.81-2.67-2.03-4.75-3.67-6.24s-3.72-2.23-6.24-2.23c-2.29,0-4.38,.57-6.27,1.7s-3.4,3.04-4.52,5.71c-1.12,2.67-1.68,6.32-1.68,10.96,0,3.58,.44,6.75,1.32,9.52,.88,2.77,2.2,4.95,3.95,6.54,1.75,1.59,3.95,2.38,6.59,2.38Z"/><path class="f" d="M328.27,101c0-5.19,.74-9.62,2.23-13.3,1.49-3.68,3.55-6.67,6.2-8.98,2.65-2.3,5.73-3.99,9.24-5.06,3.51-1.07,7.3-1.61,11.36-1.61,2.75,0,5.05,.13,6.92,.4,1.86,.26,3.51,.57,4.95,.91,1.44,.34,2.87,.64,4.31,.89l-.38,11.79c-1.46-.76-3.42-1.44-5.88-2.04-2.46-.6-5.56-.91-9.32-.91-3.25,0-6.01,.67-8.29,2.02s-4.02,3.29-5.23,5.82c-1.21,2.53-1.81,5.56-1.81,9.09s.5,6.87,1.49,9.71c.99,2.85,2.45,5.09,4.36,6.73,1.91,1.64,4.27,2.46,7.07,2.46,1.97,0,3.59-.11,4.88-.32,1.29-.21,2.38-.48,3.29-.81v-11.41l1.36,1.66-9.37-.68v-10.05h20.86v28.34c-1.08,.03-2.19,.23-3.33,.62-1.13,.39-2.44,.83-3.93,1.32s-3.31,.92-5.48,1.29c-2.17,.37-4.85,.55-8.05,.55-5.57,0-10.41-1.12-14.51-3.36-4.11-2.24-7.29-5.49-9.54-9.73-2.25-4.25-3.38-9.35-3.38-15.32Z"/><path class="f" d="M394.78,128.81h-14.74l19.58-56.53h15.95l19.73,56.53h-14.89l-11.26-37.87-1.81-7.33-1.89,7.33-10.66,37.87Zm-2.49-10.51l1.59-9.83h25.77l1.51,9.83h-28.87Z"/><path class="f" d="M440.65,128.81v-56.16h5.21c.93,0,2.27-.05,4.02-.15s3.64-.2,5.67-.3c2.03-.1,3.91-.15,5.65-.15,9.52,0,16.5,2.38,20.94,7.14,4.43,4.76,6.65,11.48,6.65,20.14,0,6.37-1.12,11.81-3.36,16.31s-5.48,7.92-9.71,10.28-9.35,3.52-15.34,3.5c-2.75-.05-5.35-.16-7.8-.34-2.46-.18-4.77-.26-6.93-.26h-4.99Zm14.13-10.35c.73,.23,1.68,.38,2.83,.47,1.16,.09,2.36,.13,3.59,.13,2.62-.02,4.91-.69,6.86-2,1.95-1.31,3.46-3.33,4.54-6.05,1.07-2.72,1.61-6.21,1.61-10.47,0-4.51-.49-8.11-1.47-10.79-.98-2.68-2.47-4.62-4.48-5.8s-4.53-1.78-7.58-1.78c-.93,0-1.98,.06-3.14,.17-1.16,.11-2.08,.23-2.76,.36v35.75Z"/><path class="f" d="M504.44,128.81h-14.74l19.58-56.53h15.95l19.73,56.53h-14.89l-11.26-37.87-1.81-7.33-1.89,7.33-10.66,37.87Zm-2.49-10.51l1.59-9.83h25.77l1.51,9.83h-28.87Z"/><path class="f" d="M563.09,128.66l-.08-4.23c1.06,.15,2.1,.26,3.12,.34,1.02,.08,2.02,.11,3,.11,4.08,0,7.56-.44,10.45-1.32s5.09-2.19,6.61-3.91,2.29-3.84,2.29-6.33c0-2.22-.51-4.24-1.53-6.07-1.02-1.83-2.59-3.22-4.71-4.18-2.12-.96-4.82-1.25-8.12-.87l-4.16,1.06-1.29-4.31c1.29-.28,2.48-.58,3.57-.91s2.17-.68,3.23-1.06c3.38-1.21,5.93-2.85,7.65-4.91,1.72-2.07,2.6-4.23,2.63-6.5,.05-3-.87-5.18-2.76-6.56s-4.27-2.06-7.14-2.06c-3.02,0-5.59,.53-7.69,1.59-2.1,1.06-3.75,2.04-4.93,2.95l-2.42-3.55c.93-.81,2.19-1.66,3.78-2.57,1.59-.91,3.39-1.67,5.4-2.3s4.14-.94,6.39-.94c2.77,0,5.33,.47,7.67,1.4,2.34,.93,4.22,2.34,5.63,4.21,1.41,1.88,2.12,4.24,2.12,7.09,0,2.42-.6,4.61-1.8,6.58-1.2,1.96-2.78,3.67-4.74,5.1-1.96,1.44-4.09,2.56-6.39,3.36l-.08-.91c3.4-.1,6.29,.52,8.67,1.85,2.38,1.33,4.19,3.09,5.42,5.25,1.23,2.17,1.85,4.43,1.85,6.8,0,3.38-.97,6.3-2.91,8.77s-4.74,4.37-8.39,5.71c-3.65,1.34-8.05,2-13.19,2-1.13,0-2.3-.06-3.5-.17-1.2-.11-2.42-.28-3.68-.51Z"/><path class="f" d="M605.11,107.8c0-3.95,.59-7.67,1.78-11.15,1.18-3.48,2.8-6.66,4.84-9.56,2.04-2.9,4.37-5.46,6.97-7.67s5.35-4.05,8.24-5.5c2.88-1.45,5.74-2.45,8.56-3l1.74,4.01c-3.78,.98-7.21,2.51-10.3,4.57-3.09,2.07-5.75,4.49-7.99,7.26-2.24,2.77-3.98,5.74-5.21,8.9-1.23,3.16-1.89,6.33-1.96,9.5-.08,3.48,.28,6.73,1.08,9.77,.79,3.04,2.15,5.49,4.08,7.37,1.93,1.88,4.54,2.82,7.84,2.82,2.85,0,5.18-.77,7.01-2.31,1.83-1.54,3.18-3.47,4.06-5.8,.88-2.33,1.32-4.69,1.32-7.08,0-3.1-.49-5.57-1.45-7.43-.97-1.85-2.22-3.18-3.76-3.99-1.54-.81-3.15-1.21-4.84-1.21s-3.3,.25-4.61,.76c-1.31,.5-2.27,.98-2.87,1.44l-1.74-3.7c.5-.5,1.27-1.01,2.29-1.53s2.23-.95,3.63-1.29,2.93-.51,4.59-.51c3.2,0,5.91,.77,8.14,2.3,2.23,1.54,3.92,3.53,5.08,5.99,1.16,2.46,1.74,5.08,1.74,7.88,0,2.65-.4,5.21-1.21,7.69s-2.02,4.7-3.63,6.67c-1.61,1.96-3.63,3.53-6.05,4.69s-5.24,1.74-8.46,1.74c-3.98,0-7.38-1-10.2-2.99-2.82-1.99-4.98-4.62-6.46-7.9-1.49-3.27-2.23-6.85-2.23-10.73Z"/><path class="f" d="M674.87,129.27c-3.38,0-6.3-.8-8.79-2.4-2.48-1.6-4.54-3.77-6.16-6.52-1.62-2.75-2.82-5.88-3.57-9.39s-1.11-7.19-1.06-11.02c.08-5.72,.98-10.68,2.72-14.87,1.74-4.19,4.13-7.44,7.18-9.73,3.05-2.29,6.58-3.44,10.58-3.44,3.45,0,6.41,.74,8.86,2.21,2.46,1.47,4.45,3.51,5.99,6.1,1.54,2.59,2.66,5.61,3.36,9.03,.71,3.43,1.03,7.09,.98,11-.05,5.69-.89,10.72-2.53,15.08-1.64,4.36-3.95,7.77-6.93,10.24-2.99,2.47-6.53,3.7-10.64,3.7Zm.23-5.67c4.36,.1,7.75-1.88,10.17-5.93,2.42-4.06,3.64-9.79,3.67-17.19,.03-4.58-.42-8.59-1.32-12.02s-2.36-6.08-4.35-7.97c-1.99-1.89-4.61-2.83-7.86-2.83-4.26,0-7.65,1.93-10.18,5.78s-3.82,9.26-3.87,16.21c-.03,4.46,.44,8.49,1.4,12.09,.96,3.6,2.45,6.47,4.48,8.6,2.03,2.13,4.65,3.22,7.88,3.27Z"/></g></g></g></svg>