<?xml version="1.0" encoding="UTF-8"?><svg id="b" xmlns="http://www.w3.org/2000/svg" xmlns:xlink="http://www.w3.org/1999/xlink" viewBox="0 0 838.2 231.55"><defs><style>.f{fill:#e20000;}.g{fill:#cd0000;}.h{fill:#c90000;}.i{fill:#cf0000;}.j{fill:#c10000;}.k{fill:#fc0000;}.l{fill:#cb0000;}.m{fill:#8f0000;}.n{fill:#e80000;}.o{fill:#b70000;}.p{fill:#f20000;}.q{fill:#c40000;}.r{fill:#8c0000;}.s{fill:#be0000;}.t{fill:#da0000;}.u{fill:#b90000;}.v{fill:#900;}.w{fill:#f60000;}.x{fill:#9d0000;}.y{fill:#b20000;}.z{fill:#d90000;}.aa{fill:#a70000;}.ab{fill:#9a0000;}.ac{fill:#e40000;}.ad{fill:#a60000;}.ae{fill:#bd0000;}.af{fill:#910000;}.ag{fill:#b00000;}.ah{fill:#b30000;}.ai{fill:#980000;}.aj{fill:#b80000;}.ak{fill:#c60000;}.al{clip-path:url(#d);}.am{fill:#c00;}.an{fill:#e70000;}.ao{fill:#e60000;}.ap{fill:#de0000;}.aq{fill:#ec0000;}.ar{fill:#a80000;}.as{fill:#9b0000;}.at{fill:#bc0000;}.au{fill:#ef0000;}.av{fill:#ac0000;}.aw{fill:#a50000;}.ax{fill:#ce0000;}.ay{fill:#f90000;}.az{fill:#c70000;}.ba{fill:#a90000;}.bb{fill:#940000;}.bc{clip-path:url(#e);}.bd{fill:#af0000;}.be{fill:#d00;}.bf{fill:#f70000;}.bg{fill:#b60000;}.bh{fill:#f80000;}.bi{fill:#c30000;}.bj{fill:#f40000;}.bk{fill:#8e0000;}.bl{fill:#a20000;}.bm{fill:#b40000;}.bn{fill:#a40000;}.bo{fill:#eb0000;}.bp{fill:#d30000;}.bq{fill:#ea0000;}.br{fill:#950000;}.bs{fill:#d60000;}.bt{fill:#db0000;}.bu{fill:#d50000;}.bv{fill:#a30000;}.bw{fill:#a00;}.bx{fill:#b10000;}.by{fill:#ba0000;}.bz{fill:#ad0000;}.ca{fill:#fb0000;}.cb{fill:#d00000;}.cc{fill:#b00;}.cd{fill:#9f0000;}.ce{fill:#930000;}.cf{fill:#900000;}.cg{fill:#d20000;}.ch{fill:none;}.ci{fill:#d80000;}.cj{fill:#ed0000;}.ck{fill:#8a0000;}.cl{fill:#920000;}.cm{fill:#a10000;}.cn{fill:#9e0000;}.co{fill:#f50000;}.cp{fill:#ae0000;}.cq{fill:#9c0000;}.cr{fill:#e00;}.cs{fill:#c00000;}.ct{fill:#ca0000;}.cu{fill:#a00000;}.cv{fill:#f10000;}.cw{fill:#d70000;}.cx{fill:#df0000;}.cy{fill:#c80000;}.cz{fill:#b50000;}.da{fill:#d40000;}.db{fill:#8d0000;}.dc{fill:#d10000;}.dd{fill:#e30000;}.de{fill:#fe0000;}.df{fill:#dc0000;}.dg{fill:#c50000;}.dh{fill:#f30000;}.di{fill:#890000;}.dj{fill:#fa0000;}.dk{fill:#970000;}.dl{fill:#f00000;}.dm{fill:#e10000;}.dn{fill:#e50000;}.do{fill:#c20000;}.dp{fill:#8b0000;}.dq{fill:red;}.dr{fill:#e00000;}.ds{fill:#fd0000;}.dt{fill:#ab0000;}.du{fill:#960000;}.dv{fill:#bf0000;}</style><clipPath id="d"><path class="ch" d="M114.83,231.55l-68.14-44.93c-4.21-2.78-7.95-6.24-10.99-10.27-1.36-1.8-2.71-3.66-4.04-5.58C10.65,140.52,2.79,108.94,0,84.84,11.19,42.19,45.85,9.04,89.34,.05c-5.79,21.13-11.81,49.98-12.94,82.6-1.43,40.81,4.8,87.49,28.69,132.3,3.09,5.79,6.35,11.32,9.74,16.6Z"/></clipPath><clipPath id="e"><path class="ch" d="M227.84,91.47h0c-3.42,23.1-11.65,51.75-30.79,79.29-1.75,2.52-3.53,4.94-5.33,7.26-2.98,3.85-6.6,7.17-10.66,9.85h0s-47.9,31.59-47.9,31.59l-18.31,12.08c2.51-4.07,4.94-8.29,7.27-12.66,2.88-5.39,5.5-10.82,7.88-16.26,17.38-39.68,22.06-80.09,20.82-115.96C149.6,51.92,142.85,21.43,136.74,0c45.83,9.39,81.9,45.57,91.1,91.47Z"/></clipPath></defs><g id="c"><g><g><g class="al"><polygon class="dq" points="91.5 .05 98.16 16.65 0 56.07 0 .05 91.5 .05"/><polygon class="dq" points="98.16 16.65 98.78 18.19 0 57.86 0 56.07 98.16 16.65"/><polygon class="de" points="98.78 18.19 99.4 19.73 0 59.65 0 57.86 98.78 18.19"/><polygon class="ds" points="99.4 19.73 100.02 21.27 0 61.43 0 59.65 99.4 19.73"/><polygon class="k" points="100.02 21.27 100.64 22.81 0 63.22 0 61.43 100.02 21.27"/><polygon class="ca" points="100.64 22.81 101.25 24.35 0 65.01 0 63.22 100.64 22.81"/><polygon class="dj" points="101.25 24.35 101.87 25.89 0 66.8 0 65.01 101.25 24.35"/><polygon class="ay" points="101.87 25.89 102.49 27.43 0 68.59 0 66.8 101.87 25.89"/><polygon class="bh" points="102.49 27.43 103.11 28.97 0 70.38 0 68.59 102.49 27.43"/><polygon class="bf" points="103.11 28.97 103.73 30.52 0 72.17 0 70.38 103.11 28.97"/><polygon class="w" points="103.73 30.52 104.35 32.06 0 73.96 0 72.17 103.73 30.52"/><polygon class="co" points="104.35 32.06 104.97 33.6 0 75.75 0 73.96 104.35 32.06"/><polygon class="bj" points="104.97 33.6 105.59 35.14 0 77.54 0 75.75 104.97 33.6"/><polygon class="dh" points="105.59 35.14 106.21 36.68 0 79.33 0 77.54 105.59 35.14"/><polygon class="p" points="106.21 36.68 106.82 38.22 0 81.12 0 79.33 106.21 36.68"/><polygon class="cv" points="106.82 38.22 107.44 39.76 0 82.91 0 81.12 106.82 38.22"/><polygon class="dl" points="107.44 39.76 108.06 41.3 0 84.7 0 82.91 107.44 39.76"/><polygon class="au" points="108.06 41.3 108.68 42.84 0 86.49 0 84.7 108.06 41.3"/><polygon class="cr" points="108.68 42.84 109.3 44.38 0 88.28 0 86.49 108.68 42.84"/><polygon class="cj" points="109.3 44.38 109.92 45.93 0 90.07 0 88.28 109.3 44.38"/><polygon class="aq" points="109.92 45.93 110.54 47.47 0 91.86 0 90.07 109.92 45.93"/><polygon class="bo" points="110.54 47.47 111.16 49.01 0 93.65 0 91.86 110.54 47.47"/><polygon class="bq" points="111.16 49.01 111.78 50.55 0 95.44 0 93.65 111.16 49.01"/><polygon class="n" points="111.78 50.55 112.39 52.09 0 97.23 0 95.44 111.78 50.55"/><polygon class="an" points="112.39 52.09 113.01 53.63 0 99.02 0 97.23 112.39 52.09"/><polygon class="ao" points="113.01 53.63 113.63 55.17 0 100.81 0 99.02 113.01 53.63"/><polygon class="dn" points="113.63 55.17 114.25 56.71 0 102.6 0 100.81 113.63 55.17"/><polygon class="ac" points="114.25 56.71 114.83 58.16 114.83 58.27 0 104.39 0 102.6 114.25 56.71"/><polygon class="dd" points="114.83 60.06 0 106.18 0 104.39 114.83 58.27 114.83 60.06"/><polygon class="f" points="114.83 61.85 0 107.97 0 106.18 114.83 60.06 114.83 61.85"/><polygon class="dm" points="114.83 63.64 0 109.75 0 107.97 114.83 61.85 114.83 63.64"/><polygon class="dr" points="114.83 65.43 0 111.54 0 109.75 114.83 63.64 114.83 65.43"/><polygon class="cx" points="114.83 67.22 0 113.33 0 111.54 114.83 65.43 114.83 67.22"/><polygon class="ap" points="114.83 69.01 0 115.12 0 113.33 114.83 67.22 114.83 69.01"/><polygon class="be" points="114.83 70.8 0 116.91 0 115.12 114.83 69.01 114.83 70.8"/><polygon class="df" points="114.83 72.59 0 118.7 0 116.91 114.83 70.8 114.83 72.59"/><polygon class="bt" points="114.83 74.38 .39 120.34 0 119.37 0 118.7 114.83 72.59 114.83 74.38"/><polygon class="t" points="114.83 76.17 1.01 121.88 .39 120.34 114.83 74.38 114.83 76.17"/><polygon class="z" points="114.83 77.96 1.63 123.42 1.01 121.88 114.83 76.17 114.83 77.96"/><polygon class="ci" points="114.83 79.75 2.25 124.96 1.63 123.42 114.83 77.96 114.83 79.75"/><polygon class="cw" points="114.83 81.54 2.87 126.5 2.25 124.96 114.83 79.75 114.83 81.54"/><polygon class="bs" points="114.83 83.32 3.48 128.04 2.87 126.5 114.83 81.54 114.83 83.32"/><polygon class="bu" points="114.83 85.11 4.1 129.58 3.48 128.04 114.83 83.32 114.83 85.11"/><polygon class="da" points="114.83 86.9 4.72 131.12 4.1 129.58 114.83 85.11 114.83 86.9"/><polygon class="bp" points="114.83 88.69 5.34 132.66 4.72 131.12 114.83 86.9 114.83 88.69"/><polygon class="cg" points="114.83 90.48 5.96 134.21 5.34 132.66 114.83 88.69 114.83 90.48"/><polygon class="dc" points="114.83 92.27 6.58 135.75 5.96 134.21 114.83 90.48 114.83 92.27"/><polygon class="cb" points="114.83 94.06 7.2 137.29 6.58 135.75 114.83 92.27 114.83 94.06"/><polygon class="i" points="114.83 95.85 7.82 138.83 7.2 137.29 114.83 94.06 114.83 95.85"/><polygon class="ax" points="114.83 97.64 8.44 140.37 7.82 138.83 114.83 95.85 114.83 97.64"/><polygon class="g" points="114.83 99.43 9.05 141.91 8.44 140.37 114.83 97.64 114.83 99.43"/><polygon class="am" points="114.83 101.22 9.67 143.45 9.05 141.91 114.83 99.43 114.83 101.22"/><polygon class="l" points="114.83 103.01 10.29 144.99 9.67 143.45 114.83 101.22 114.83 103.01"/><polygon class="ct" points="114.83 104.8 10.91 146.53 10.29 144.99 114.83 103.01 114.83 104.8"/><polygon class="h" points="114.83 106.59 11.53 148.08 10.91 146.53 114.83 104.8 114.83 106.59"/><polygon class="cy" points="114.83 108.38 12.15 149.62 11.53 148.08 114.83 106.59 114.83 108.38"/><polygon class="az" points="114.83 110.17 12.77 151.16 12.15 149.62 114.83 108.38 114.83 110.17"/><polygon class="ak" points="114.83 111.96 13.39 152.7 12.77 151.16 114.83 110.17 114.83 111.96"/><polygon class="dg" points="114.83 113.75 14.01 154.24 13.39 152.7 114.83 111.96 114.83 113.75"/><polygon class="q" points="114.83 115.54 14.62 155.78 14.01 154.24 114.83 113.75 114.83 115.54"/><polygon class="bi" points="114.83 117.33 15.24 157.32 14.62 155.78 114.83 115.54 114.83 117.33"/><polygon class="do" points="114.83 119.12 15.86 158.86 15.24 157.32 114.83 117.33 114.83 119.12"/><polygon class="j" points="114.83 120.91 16.48 160.4 15.86 158.86 114.83 119.12 114.83 120.91"/><polygon class="cs" points="114.83 122.7 17.1 161.95 16.48 160.4 114.83 120.91 114.83 122.7"/><polygon class="dv" points="114.83 124.49 17.72 163.49 17.1 161.95 114.83 122.7 114.83 124.49"/><polygon class="s" points="114.83 126.28 18.34 165.03 17.72 163.49 114.83 124.49 114.83 126.28"/><polygon class="ae" points="114.83 128.07 18.96 166.57 18.34 165.03 114.83 126.28 114.83 128.07"/><polygon class="at" points="114.83 129.86 19.58 168.11 18.96 166.57 114.83 128.07 114.83 129.86"/><polygon class="cc" points="114.83 131.64 20.19 169.65 19.58 168.11 114.83 129.86 114.83 131.64"/><polygon class="by" points="114.83 133.43 20.81 171.19 20.19 169.65 114.83 131.64 114.83 133.43"/><polygon class="u" points="114.83 135.22 21.43 172.73 20.81 171.19 114.83 133.43 114.83 135.22"/><polygon class="aj" points="114.83 137.01 22.05 174.27 21.43 172.73 114.83 135.22 114.83 137.01"/><polygon class="o" points="114.83 138.8 22.67 175.82 22.05 174.27 114.83 137.01 114.83 138.8"/><polygon class="bg" points="114.83 140.59 23.29 177.36 22.67 175.82 114.83 138.8 114.83 140.59"/><polygon class="cz" points="114.83 142.38 23.91 178.9 23.29 177.36 114.83 140.59 114.83 142.38"/><polygon class="bm" points="114.83 144.17 24.53 180.44 23.91 178.9 114.83 142.38 114.83 144.17"/><polygon class="ah" points="114.83 145.96 25.15 181.98 24.53 180.44 114.83 144.17 114.83 145.96"/><polygon class="y" points="114.83 147.75 25.76 183.52 25.15 181.98 114.83 145.96 114.83 147.75"/><polygon class="bx" points="114.83 149.54 26.38 185.06 25.76 183.52 114.83 147.75 114.83 149.54"/><polygon class="ag" points="114.83 151.33 27 186.6 26.38 185.06 114.83 149.54 114.83 151.33"/><polygon class="bd" points="114.83 153.12 27.62 188.14 27 186.6 114.83 151.33 114.83 153.12"/><polygon class="cp" points="114.83 154.91 28.24 189.69 27.62 188.14 114.83 153.12 114.83 154.91"/><polygon class="bz" points="114.83 156.7 28.86 191.23 28.24 189.69 114.83 154.91 114.83 156.7"/><polygon class="av" points="114.83 158.49 29.48 192.77 28.86 191.23 114.83 156.7 114.83 158.49"/><polygon class="dt" points="114.83 160.28 30.1 194.31 29.48 192.77 114.83 158.49 114.83 160.28"/><polygon class="bw" points="114.83 162.07 30.72 195.85 30.1 194.31 114.83 160.28 114.83 162.07"/><polygon class="ba" points="114.83 163.86 31.33 197.39 30.72 195.85 114.83 162.07 114.83 163.86"/><polygon class="ar" points="114.83 165.65 31.95 198.93 31.33 197.39 114.83 163.86 114.83 165.65"/><polygon class="aa" points="114.83 167.44 32.57 200.47 31.95 198.93 114.83 165.65 114.83 167.44"/><polygon class="ad" points="114.83 169.23 33.19 202.01 32.57 200.47 114.83 167.44 114.83 169.23"/><polygon class="aw" points="114.83 171.02 33.81 203.55 33.19 202.01 114.83 169.23 114.83 171.02"/><polygon class="bn" points="114.83 172.81 34.43 205.1 33.81 203.55 114.83 171.02 114.83 172.81"/><polygon class="bv" points="114.83 174.6 35.05 206.64 34.43 205.1 114.83 172.81 114.83 174.6"/><polygon class="bl" points="114.83 176.39 35.67 208.18 35.05 206.64 114.83 174.6 114.83 176.39"/><polygon class="cm" points="114.83 178.18 36.29 209.72 35.67 208.18 114.83 176.39 114.83 178.18"/><polygon class="cu" points="114.83 179.96 36.9 211.26 36.29 209.72 114.83 178.18 114.83 179.96"/><polygon class="cd" points="114.83 181.75 37.52 212.8 36.9 211.26 114.83 179.96 114.83 181.75"/><polygon class="cn" points="114.83 183.54 38.14 214.34 37.52 212.8 114.83 181.75 114.83 183.54"/><polygon class="x" points="114.83 185.33 38.76 215.88 38.14 214.34 114.83 183.54 114.83 185.33"/><polygon class="cq" points="114.83 187.12 39.38 217.42 38.76 215.88 114.83 185.33 114.83 187.12"/><polygon class="as" points="114.83 188.91 40 218.97 39.38 217.42 114.83 187.12 114.83 188.91"/><polygon class="ab" points="114.83 190.7 40.62 220.51 40 218.97 114.83 188.91 114.83 190.7"/><polygon class="v" points="114.83 192.49 41.24 222.05 40.62 220.51 114.83 190.7 114.83 192.49"/><polygon class="ai" points="114.83 194.28 41.86 223.59 41.24 222.05 114.83 192.49 114.83 194.28"/><polygon class="dk" points="114.83 196.07 42.47 225.13 41.86 223.59 114.83 194.28 114.83 196.07"/><polygon class="du" points="114.83 197.86 43.09 226.67 42.47 225.13 114.83 196.07 114.83 197.86"/><polygon class="br" points="114.83 199.65 43.71 228.21 43.09 226.67 114.83 197.86 114.83 199.65"/><polygon class="bb" points="114.83 201.44 44.33 229.75 43.71 228.21 114.83 199.65 114.83 201.44"/><polygon class="ce" points="114.83 203.23 44.95 231.29 44.33 229.75 114.83 201.44 114.83 203.23"/><polygon class="cl" points="114.83 205.02 48.78 231.55 45.05 231.55 44.95 231.29 114.83 203.23 114.83 205.02"/><polygon class="af" points="114.83 206.81 53.23 231.55 48.78 231.55 114.83 205.02 114.83 206.81"/><polygon class="cf" points="114.83 208.6 57.69 231.55 53.23 231.55 114.83 206.81 114.83 208.6"/><polygon class="m" points="114.83 210.39 62.15 231.55 57.69 231.55 114.83 208.6 114.83 210.39"/><polygon class="bk" points="114.83 212.18 66.6 231.55 62.15 231.55 114.83 210.39 114.83 212.18"/><polygon class="db" points="114.83 213.97 71.06 231.55 66.6 231.55 114.83 212.18 114.83 213.97"/><polygon class="r" points="114.83 215.76 75.52 231.55 71.06 231.55 114.83 213.97 114.83 215.76"/><polygon class="dp" points="114.83 217.55 79.97 231.55 75.52 231.55 114.83 215.76 114.83 217.55"/><polygon class="ck" points="114.83 219.34 84.43 231.55 79.97 231.55 114.83 217.55 114.83 219.34"/><polygon class="di" points="114.83 221.13 88.88 231.55 84.43 231.55 114.83 219.34 114.83 221.13"/><polygon class="di" points="88.88 231.55 114.83 221.13 114.83 231.55 88.88 231.55"/></g><g class="bc"><polygon class="dq" points="227.84 56.37 127.03 22.92 134.63 0 227.84 0 227.84 56.37"/><polygon class="dq" points="227.84 58.03 126.53 24.42 127.03 22.92 227.84 56.37 227.84 58.03"/><polygon class="de" points="227.84 59.69 126.04 25.91 126.53 24.42 227.84 58.03 227.84 59.69"/><polygon class="ds" points="227.84 61.35 125.54 27.41 126.04 25.91 227.84 59.69 227.84 61.35"/><polygon class="k" points="227.84 63.01 125.04 28.91 125.54 27.41 227.84 61.35 227.84 63.01"/><polygon class="ca" points="227.84 64.67 124.55 30.4 125.04 28.91 227.84 63.01 227.84 64.67"/><polygon class="dj" points="227.84 66.33 124.05 31.9 124.55 30.4 227.84 64.67 227.84 66.33"/><polygon class="ay" points="227.84 67.99 123.55 33.39 124.05 31.9 227.84 66.33 227.84 67.99"/><polygon class="bh" points="227.84 69.65 123.06 34.89 123.55 33.39 227.84 67.99 227.84 69.65"/><polygon class="bf" points="227.84 71.31 122.56 36.39 123.06 34.89 227.84 69.65 227.84 71.31"/><polygon class="w" points="227.84 72.97 122.07 37.88 122.56 36.39 227.84 71.31 227.84 72.97"/><polygon class="co" points="227.84 74.63 121.57 39.38 122.07 37.88 227.84 72.97 227.84 74.63"/><polygon class="bj" points="227.84 76.29 121.07 40.87 121.57 39.38 227.84 74.63 227.84 76.29"/><polygon class="dh" points="227.84 77.95 120.58 42.37 121.07 40.87 227.84 76.29 227.84 77.95"/><polygon class="p" points="227.84 79.62 120.08 43.87 120.58 42.37 227.84 77.95 227.84 79.62"/><polygon class="cv" points="227.84 81.28 119.58 45.36 120.08 43.87 227.84 79.62 227.84 81.28"/><polygon class="dl" points="227.84 82.94 119.09 46.86 119.58 45.36 227.84 81.28 227.84 82.94"/><polygon class="au" points="227.84 84.6 118.59 48.35 119.09 46.86 227.84 82.94 227.84 84.6"/><polygon class="cr" points="227.84 86.26 118.1 49.85 118.59 48.35 227.84 84.6 227.84 86.26"/><polygon class="cj" points="227.84 87.92 117.6 51.35 118.1 49.85 227.84 86.26 227.84 87.92"/><polygon class="aq" points="227.84 89.58 117.1 52.84 117.6 51.35 227.84 87.92 227.84 89.58"/><polygon class="bo" points="227.84 91.24 116.61 54.34 117.1 52.84 227.84 89.58 227.84 91.24"/><polygon class="bq" points="227.84 92.9 116.11 55.83 116.61 54.34 227.84 91.24 227.84 92.9"/><polygon class="n" points="227.84 94.56 115.61 57.33 116.11 55.83 227.84 92.9 227.84 94.56"/><polygon class="an" points="227.84 96.22 115.12 58.83 115.61 57.33 227.84 94.56 227.84 96.22"/><polygon class="ao" points="227.84 97.88 114.84 60.4 114.84 59.65 115.12 58.83 227.84 96.22 227.84 97.88"/><polygon class="dn" points="227.84 99.54 114.84 62.06 114.84 60.4 227.84 97.88 227.84 99.54"/><polygon class="ac" points="227.84 101.2 114.84 63.72 114.84 62.06 227.84 99.54 227.84 101.2"/><polygon class="dd" points="227.84 102.86 114.84 65.38 114.84 63.72 227.84 101.2 227.84 102.86"/><polygon class="f" points="227.84 104.53 114.84 67.04 114.84 65.38 227.84 102.86 227.84 104.53"/><polygon class="dm" points="227.84 106.19 114.84 68.7 114.84 67.04 227.84 104.53 227.84 106.19"/><polygon class="dr" points="227.84 107.85 114.84 70.36 114.84 68.7 227.84 106.19 227.84 107.85"/><polygon class="cx" points="227.84 109.51 114.84 72.02 114.84 70.36 227.84 107.85 227.84 109.51"/><polygon class="ap" points="227.84 111.17 114.84 73.68 114.84 72.02 227.84 109.51 227.84 111.17"/><polygon class="be" points="227.84 112.83 114.84 75.34 114.84 73.68 227.84 111.17 227.84 112.83"/><polygon class="df" points="227.84 114.45 227.83 114.49 114.84 77 114.84 75.34 227.84 112.83 227.84 114.45"/><polygon class="bt" points="227.83 114.49 227.33 115.98 114.84 78.66 114.84 77 227.83 114.49"/><polygon class="t" points="227.33 115.98 226.83 117.48 114.84 80.32 114.84 78.66 227.33 115.98"/><polygon class="z" points="226.83 117.48 226.34 118.97 114.84 81.99 114.84 80.32 226.83 117.48"/><polygon class="ci" points="226.34 118.97 225.84 120.47 114.84 83.65 114.84 81.99 226.34 118.97"/><polygon class="cw" points="225.84 120.47 225.34 121.97 114.84 85.31 114.84 83.65 225.84 120.47"/><polygon class="bs" points="225.34 121.97 224.85 123.46 114.84 86.97 114.84 85.31 225.34 121.97"/><polygon class="bu" points="224.85 123.46 224.35 124.96 114.84 88.63 114.84 86.97 224.85 123.46"/><polygon class="da" points="224.35 124.96 223.85 126.45 114.84 90.29 114.84 88.63 224.35 124.96"/><polygon class="bp" points="223.85 126.45 223.36 127.95 114.84 91.95 114.84 90.29 223.85 126.45"/><polygon class="cg" points="223.36 127.95 222.86 129.45 114.84 93.61 114.84 91.95 223.36 127.95"/><polygon class="dc" points="222.86 129.45 222.37 130.94 114.84 95.27 114.84 93.61 222.86 129.45"/><polygon class="cb" points="222.37 130.94 221.87 132.44 114.84 96.93 114.84 95.27 222.37 130.94"/><polygon class="i" points="221.87 132.44 221.37 133.93 114.84 98.59 114.84 96.93 221.87 132.44"/><polygon class="ax" points="221.37 133.93 220.88 135.43 114.84 100.25 114.84 98.59 221.37 133.93"/><polygon class="g" points="220.88 135.43 220.38 136.93 114.84 101.91 114.84 100.25 220.88 135.43"/><polygon class="am" points="220.38 136.93 219.88 138.42 114.84 103.57 114.84 101.91 220.38 136.93"/><polygon class="l" points="219.88 138.42 219.39 139.92 114.84 105.23 114.84 103.57 219.88 138.42"/><polygon class="ct" points="219.39 139.92 218.89 141.41 114.84 106.9 114.84 105.23 219.39 139.92"/><polygon class="h" points="218.89 141.41 218.4 142.91 114.84 108.56 114.84 106.9 218.89 141.41"/><polygon class="cy" points="218.4 142.91 217.9 144.41 114.84 110.22 114.84 108.56 218.4 142.91"/><polygon class="az" points="217.9 144.41 217.4 145.9 114.84 111.88 114.84 110.22 217.9 144.41"/><polygon class="ak" points="217.4 145.9 216.91 147.4 114.84 113.54 114.84 111.88 217.4 145.9"/><polygon class="dg" points="216.91 147.4 216.41 148.89 114.84 115.2 114.84 113.54 216.91 147.4"/><polygon class="q" points="216.41 148.89 215.91 150.39 114.84 116.86 114.84 115.2 216.41 148.89"/><polygon class="bi" points="215.91 150.39 215.42 151.89 114.84 118.52 114.84 116.86 215.91 150.39"/><polygon class="do" points="215.42 151.89 214.92 153.38 114.84 120.18 114.84 118.52 215.42 151.89"/><polygon class="j" points="214.92 153.38 214.42 154.88 114.84 121.84 114.84 120.18 214.92 153.38"/><polygon class="cs" points="214.42 154.88 213.93 156.37 114.84 123.5 114.84 121.84 214.42 154.88"/><polygon class="dv" points="213.93 156.37 213.43 157.87 114.84 125.16 114.84 123.5 213.93 156.37"/><polygon class="s" points="213.43 157.87 212.94 159.37 114.84 126.82 114.84 125.16 213.43 157.87"/><polygon class="ae" points="212.94 159.37 212.44 160.86 114.84 128.48 114.84 126.82 212.94 159.37"/><polygon class="at" points="212.44 160.86 211.94 162.36 114.84 130.14 114.84 128.48 212.44 160.86"/><polygon class="cc" points="211.94 162.36 211.45 163.85 114.84 131.81 114.84 130.14 211.94 162.36"/><polygon class="by" points="211.45 163.85 210.95 165.35 114.84 133.47 114.84 131.81 211.45 163.85"/><polygon class="u" points="210.95 165.35 210.45 166.85 114.84 135.13 114.84 133.47 210.95 165.35"/><polygon class="aj" points="210.45 166.85 209.96 168.34 114.84 136.79 114.84 135.13 210.45 166.85"/><polygon class="o" points="209.96 168.34 209.46 169.84 114.84 138.45 114.84 136.79 209.96 168.34"/><polygon class="bg" points="209.46 169.84 208.97 171.33 114.84 140.11 114.84 138.45 209.46 169.84"/><polygon class="cz" points="208.97 171.33 208.47 172.83 114.84 141.77 114.84 140.11 208.97 171.33"/><polygon class="bm" points="208.47 172.83 207.97 174.33 114.84 143.43 114.84 141.77 208.47 172.83"/><polygon class="ah" points="207.97 174.33 207.48 175.82 114.84 145.09 114.84 143.43 207.97 174.33"/><polygon class="y" points="207.48 175.82 206.98 177.32 114.84 146.75 114.84 145.09 207.48 175.82"/><polygon class="bx" points="206.98 177.32 206.48 178.81 114.84 148.41 114.84 146.75 206.98 177.32"/><polygon class="ag" points="206.48 178.81 205.99 180.31 114.84 150.07 114.84 148.41 206.48 178.81"/><polygon class="bd" points="205.99 180.31 205.49 181.81 114.84 151.73 114.84 150.07 205.99 180.31"/><polygon class="cp" points="205.49 181.81 205 183.3 114.84 153.39 114.84 151.73 205.49 181.81"/><polygon class="bz" points="205 183.3 204.5 184.8 114.84 155.05 114.84 153.39 205 183.3"/><polygon class="av" points="204.5 184.8 204 186.29 114.84 156.72 114.84 155.05 204.5 184.8"/><polygon class="dt" points="204 186.29 203.51 187.79 114.84 158.38 114.84 156.72 204 186.29"/><polygon class="bw" points="203.51 187.79 203.01 189.29 114.84 160.04 114.84 158.38 203.51 187.79"/><polygon class="ba" points="203.01 189.29 202.51 190.78 114.84 161.7 114.84 160.04 203.01 189.29"/><polygon class="ar" points="202.51 190.78 202.02 192.28 114.84 163.36 114.84 161.7 202.51 190.78"/><polygon class="aa" points="202.02 192.28 201.52 193.77 114.84 165.02 114.84 163.36 202.02 192.28"/><polygon class="ad" points="201.52 193.77 201.02 195.27 114.84 166.68 114.84 165.02 201.52 193.77"/><polygon class="aw" points="201.02 195.27 200.53 196.77 114.84 168.34 114.84 166.68 201.02 195.27"/><polygon class="bn" points="200.53 196.77 200.03 198.26 114.84 170 114.84 168.34 200.53 196.77"/><polygon class="bv" points="200.03 198.26 199.54 199.76 114.84 171.66 114.84 170 200.03 198.26"/><polygon class="bl" points="199.54 199.76 199.04 201.25 114.84 173.32 114.84 171.66 199.54 199.76"/><polygon class="cm" points="199.04 201.25 198.54 202.75 114.84 174.98 114.84 173.32 199.04 201.25"/><polygon class="cu" points="198.54 202.75 198.05 204.25 114.84 176.64 114.84 174.98 198.54 202.75"/><polygon class="cd" points="198.05 204.25 197.55 205.74 114.84 178.3 114.84 176.64 198.05 204.25"/><polygon class="cn" points="197.55 205.74 197.05 207.24 114.84 179.97 114.84 178.3 197.55 205.74"/><polygon class="x" points="197.05 207.24 196.56 208.73 114.84 181.63 114.84 179.97 197.05 207.24"/><polygon class="cq" points="196.56 208.73 196.06 210.23 114.84 183.29 114.84 181.63 196.56 208.73"/><polygon class="as" points="196.06 210.23 195.57 211.73 114.84 184.95 114.84 183.29 196.06 210.23"/><polygon class="ab" points="195.57 211.73 195.07 213.22 114.84 186.61 114.84 184.95 195.57 211.73"/><polygon class="v" points="195.07 213.22 194.57 214.72 114.84 188.27 114.84 186.61 195.07 213.22"/><polygon class="ai" points="194.57 214.72 194.08 216.21 114.84 189.93 114.84 188.27 194.57 214.72"/><polygon class="dk" points="194.08 216.21 193.58 217.71 114.84 191.59 114.84 189.93 194.08 216.21"/><polygon class="du" points="193.58 217.71 193.08 219.21 114.84 193.25 114.84 191.59 193.58 217.71"/><polygon class="br" points="193.08 219.21 192.59 220.7 114.84 194.91 114.84 193.25 193.08 219.21"/><polygon class="bb" points="192.59 220.7 192.09 222.2 114.84 196.57 114.84 194.91 192.59 220.7"/><polygon class="ce" points="192.09 222.2 191.59 223.69 114.84 198.23 114.84 196.57 192.09 222.2"/><polygon class="cl" points="191.59 223.69 191.1 225.19 114.84 199.89 114.84 198.23 191.59 223.69"/><polygon class="af" points="191.1 225.19 190.6 226.69 114.84 201.55 114.84 199.89 191.1 225.19"/><polygon class="cf" points="190.6 226.69 190.11 228.18 114.84 203.21 114.84 201.55 190.6 226.69"/><polygon class="m" points="190.11 228.18 189.61 229.68 114.84 204.88 114.84 203.21 190.11 228.18"/><polygon class="bk" points="189.61 229.68 189.11 231.17 114.84 206.54 114.84 204.88 189.61 229.68"/><polygon class="db" points="189.11 231.17 188.99 231.55 185.23 231.55 114.84 208.2 114.84 206.54 189.11 231.17"/><polygon class="r" points="180.22 231.55 114.84 209.86 114.84 208.2 185.23 231.55 180.22 231.55"/><polygon class="dp" points="175.22 231.55 114.84 211.52 114.84 209.86 180.22 231.55 175.22 231.55"/><polygon class="ck" points="170.21 231.55 114.84 213.18 114.84 211.52 175.22 231.55 170.21 231.55"/><polygon class="di" points="165.21 231.55 114.84 214.84 114.84 213.18 170.21 231.55 165.21 231.55"/><polygon class="di" points="114.84 214.84 165.21 231.55 114.84 231.55 114.84 214.84"/></g><path d="M129.99,202.63c-1.81-8.36-4.02-16.99-6.74-25.87-11.69-38.18-29.16-69.48-46.85-94.12,1.13-32.61,7.15-61.47,12.94-82.6,18.78,19.29,42.5,48.04,61.46,86.62,1.24,35.87-3.43,76.28-20.82,115.96Z"/></g><g><polygon points="298.65 117.44 300.49 134.64 295.83 124.82 272.67 87.63 256.81 87.63 256.81 155.36 272.22 155.36 272.22 126.1 270.12 108.77 275.04 119.08 297.01 155.36 314.06 155.36 314.06 87.63 298.65 87.63 298.65 117.44"/><path d="M374.31,90.8c-4.59-2.78-10.09-4.08-16.5-3.9-6.26,.18-11.82,1.45-16.68,3.81-4.86,2.36-8.7,6.02-11.51,10.98-2.81,4.97-4.29,11.46-4.44,19.48-.12,7.17,1.04,13.39,3.49,18.66,2.45,5.27,6.03,9.33,10.76,12.17,4.72,2.84,10.43,4.2,17.11,4.08,6.17-.12,11.61-1.4,16.32-3.83,4.71-2.43,8.42-6.18,11.12-11.26,2.7-5.07,4.13-11.62,4.29-19.64,.12-7.14-1.03-13.32-3.44-18.55-2.42-5.23-5.92-9.23-10.51-12.01Zm-7.16,47.77c-2.52,3.54-5.97,5.31-10.35,5.31-3.19,0-5.84-.96-7.95-2.87-2.11-1.91-3.7-4.54-4.76-7.88-1.06-3.34-1.59-7.17-1.59-11.49,0-5.59,.68-10,2.03-13.22,1.35-3.22,3.17-5.51,5.45-6.88,2.28-1.37,4.8-2.05,7.57-2.05,3.04,0,5.54,.9,7.52,2.69,1.97,1.79,3.45,4.3,4.42,7.52,.97,3.22,1.46,6.96,1.46,11.21,0,8.23-1.26,14.12-3.78,17.66Z"/><path d="M428.91,129.47l9.66,.7v11.88c-1.09,.4-2.42,.72-3.97,.98-1.55,.26-3.51,.39-5.88,.39-3.37,0-6.21-.99-8.52-2.96-2.31-1.97-4.06-4.68-5.26-8.11-1.2-3.43-1.8-7.34-1.8-11.71s.73-7.91,2.19-10.96c1.46-3.05,3.56-5.39,6.31-7.02,2.75-1.62,6.08-2.44,10-2.44,4.53,0,8.27,.36,11.23,1.09,2.96,.73,5.33,1.55,7.09,2.46l.46-14.22c-1.73-.3-3.46-.66-5.2-1.07-1.73-.41-3.72-.77-5.97-1.09-2.25-.32-5.03-.48-8.34-.48-4.89,0-9.46,.65-13.7,1.94-4.24,1.29-7.95,3.33-11.14,6.11s-5.68,6.39-7.47,10.82c-1.79,4.44-2.69,9.78-2.69,16.04,0,7.2,1.36,13.36,4.08,18.48,2.72,5.12,6.56,9.03,11.51,11.74,4.95,2.7,10.79,4.06,17.5,4.06,3.86,0,7.09-.22,9.71-.66,2.61-.44,4.82-.96,6.61-1.55,1.79-.59,3.37-1.12,4.74-1.6,1.37-.47,2.7-.72,4.01-.75v-34.18h-25.16v12.12Z"/><path d="M481.96,87.17l-23.61,68.18h17.78l3.57-12.67h23.57l3.77,12.67h17.96l-23.79-68.18h-19.23Zm1.07,43.66l5.95-21.15,2.28-8.84,2.19,8.84,6.29,21.15h-16.71Z"/><path d="M556.26,86.9c-2.1,0-4.37,.06-6.81,.18-2.45,.12-4.72,.24-6.84,.36-2.11,.12-3.73,.18-4.85,.18h-6.29v67.73h6.02c2.61,0,5.4,.11,8.36,.32,2.96,.21,6.1,.35,9.41,.41,7.23,.03,13.4-1.37,18.5-4.22,5.11-2.84,9.01-6.97,11.71-12.4,2.7-5.42,4.06-11.98,4.06-19.67,0-10.45-2.67-18.55-8.02-24.29-5.35-5.74-13.76-8.61-25.25-8.61Zm13.74,46.99c-1.29,3.28-3.12,5.71-5.47,7.29-2.35,1.58-5.11,2.39-8.27,2.42-1.49,0-2.93-.05-4.33-.16-1.4-.11-2.54-.3-3.42-.57v-43.12c.82-.15,1.93-.3,3.33-.43,1.4-.14,2.66-.21,3.78-.21,3.68,0,6.72,.71,9.14,2.14,2.42,1.43,4.22,3.76,5.4,7,1.19,3.24,1.78,7.57,1.78,13.01,0,5.14-.65,9.34-1.94,12.62Z"/><path d="M614.23,87.17l-23.61,68.18h17.78l3.57-12.67h23.57l3.77,12.67h17.96l-23.79-68.18h-19.23Zm1.07,43.66l5.95-21.15,2.28-8.84,2.19,8.84,6.29,21.15h-16.71Z"/><path d="M708.55,121.59c-2.24-1.25-4.85-1.98-7.83-2.18,1.81-.83,3.54-1.83,5.17-3.02,2.37-1.73,4.28-3.78,5.72-6.15s2.17-5.01,2.17-7.93c0-3.43-.85-6.28-2.55-8.55-1.7-2.26-3.96-3.96-6.79-5.08-2.83-1.12-5.91-1.69-9.25-1.69-2.71,0-5.27,.38-7.7,1.14-2.43,.76-4.6,1.69-6.52,2.78-1.92,1.09-3.43,2.13-4.56,3.1l2.92,4.28c1.43-1.09,3.41-2.28,5.95-3.56,2.54-1.28,5.63-1.91,9.28-1.91s6.33,.83,8.61,2.48c2.28,1.66,3.39,4.29,3.33,7.91-.03,2.73-1.09,5.35-3.17,7.84-2.08,2.49-5.16,4.47-9.23,5.92-1.28,.46-2.58,.88-3.9,1.28-1.32,.4-2.76,.76-4.31,1.09l1.55,5.2,5.01-1.28c3.98-.46,7.25-.11,9.8,1.05,2.55,1.15,4.44,2.83,5.67,5.04,1.23,2.2,1.85,4.64,1.85,7.31,0,3.01-.92,5.55-2.76,7.63-1.84,2.08-4.5,3.65-7.98,4.72-3.48,1.06-7.68,1.6-12.6,1.6-1.18,0-2.39-.05-3.62-.14-1.23-.09-2.48-.23-3.76-.41l.09,5.1c1.52,.27,3,.48,4.44,.62s2.85,.21,4.22,.21c6.2,0,11.5-.8,15.91-2.42,4.41-1.61,7.78-3.9,10.12-6.88,2.34-2.98,3.51-6.5,3.51-10.57,0-2.86-.74-5.59-2.23-8.2-1.49-2.61-3.67-4.72-6.54-6.34Z"/><path d="M767.71,114.29c-2.69-1.85-5.96-2.78-9.82-2.78-2.01,0-3.85,.21-5.54,.62-1.69,.41-3.14,.93-4.38,1.55-1.23,.62-2.15,1.24-2.76,1.85l2.1,4.47c.73-.55,1.88-1.12,3.46-1.73,1.58-.61,3.43-.91,5.56-.91s3.98,.49,5.83,1.46c1.85,.97,3.36,2.58,4.54,4.81,1.17,2.23,1.75,5.22,1.75,8.96,0,2.89-.53,5.74-1.59,8.55-1.06,2.81-2.7,5.14-4.9,7-2.2,1.85-5.02,2.78-8.46,2.78-3.98,0-7.13-1.13-9.46-3.4-2.32-2.26-3.97-5.23-4.92-8.89-.96-3.66-1.39-7.59-1.3-11.78,.09-3.83,.88-7.65,2.37-11.46,1.49-3.81,3.58-7.39,6.29-10.73,2.7-3.34,5.92-6.26,9.64-8.75,3.72-2.49,7.86-4.33,12.42-5.52l-2.1-4.83c-3.4,.67-6.84,1.88-10.32,3.62-3.48,1.75-6.79,3.96-9.94,6.63-3.14,2.67-5.95,5.76-8.41,9.25-2.46,3.49-4.41,7.34-5.83,11.53-1.43,4.19-2.14,8.68-2.14,13.45s.9,8.99,2.69,12.94c1.79,3.95,4.39,7.13,7.79,9.53,3.4,2.4,7.5,3.6,12.31,3.6,3.89,0,7.29-.7,10.21-2.1,2.92-1.4,5.35-3.28,7.29-5.65,1.94-2.37,3.4-5.05,4.38-8.04,.97-2.99,1.46-6.08,1.46-9.27,0-3.37-.7-6.54-2.1-9.5-1.4-2.96-3.44-5.37-6.13-7.22Z"/><path d="M837.01,107.64c-.85-4.13-2.2-7.76-4.06-10.89-1.85-3.13-4.26-5.58-7.22-7.36-2.96-1.78-6.53-2.67-10.69-2.67-4.83,0-9.08,1.38-12.76,4.15-3.68,2.77-6.56,6.68-8.66,11.74s-3.19,11.04-3.28,17.93c-.06,4.62,.37,9.05,1.28,13.29,.91,4.24,2.35,8.01,4.31,11.33,1.96,3.31,4.44,5.93,7.43,7.86,2.99,1.93,6.52,2.89,10.6,2.89,4.95,0,9.23-1.49,12.83-4.47,3.6-2.98,6.39-7.09,8.36-12.35,1.97-5.26,2.99-11.32,3.05-18.19,.06-4.71-.33-9.13-1.18-13.26Zm-10.53,34.27c-2.92,4.89-7,7.28-12.26,7.16-3.89-.06-7.06-1.37-9.5-3.94-2.45-2.57-4.25-6.02-5.4-10.37-1.16-4.34-1.72-9.21-1.69-14.58,.06-8.39,1.62-14.9,4.67-19.55s7.15-6.97,12.28-6.97c3.92,0,7.08,1.14,9.48,3.42s4.15,5.48,5.24,9.62c1.09,4.13,1.62,8.96,1.6,14.49-.03,8.93-1.5,15.85-4.42,20.74Z"/></g></g></g></svg>