<svg width="34" height="34" viewBox="0 0 34 34" fill="none" xmlns="http://www.w3.org/2000/svg">
<path d="M26.9166 5.66665H25.5V4.24998C25.5 3.39998 24.9333 2.83331 24.0833 2.83331C23.2333 2.83331 22.6666 3.39998 22.6666 4.24998V5.66665H11.3333V4.24998C11.3333 3.39998 10.7666 2.83331 9.91665 2.83331C9.06665 2.83331 8.49998 3.39998 8.49998 4.24998V5.66665H7.08331C4.67498 5.66665 2.83331 7.50831 2.83331 9.91665V11.3333H31.1666V9.91665C31.1666 7.50831 29.325 5.66665 26.9166 5.66665ZM2.83331 26.9166C2.83331 29.325 4.67498 31.1666 7.08331 31.1666H26.9166C29.325 31.1666 31.1666 29.325 31.1666 26.9166V14.1666H2.83331V26.9166ZM24.0833 17C24.9333 17 25.5 17.5666 25.5 18.4166C25.5 19.2666 24.9333 19.8333 24.0833 19.8333C23.2333 19.8333 22.6666 19.2666 22.6666 18.4166C22.6666 17.5666 23.2333 17 24.0833 17ZM24.0833 22.6666C24.9333 22.6666 25.5 23.2333 25.5 24.0833C25.5 24.9333 24.9333 25.5 24.0833 25.5C23.2333 25.5 22.6666 24.9333 22.6666 24.0833C22.6666 23.2333 23.2333 22.6666 24.0833 22.6666ZM17 17C17.85 17 18.4166 17.5666 18.4166 18.4166C18.4166 19.2666 17.85 19.8333 17 19.8333C16.15 19.8333 15.5833 19.2666 15.5833 18.4166C15.5833 17.5666 16.15 17 17 17ZM17 22.6666C17.85 22.6666 18.4166 23.2333 18.4166 24.0833C18.4166 24.9333 17.85 25.5 17 25.5C16.15 25.5 15.5833 24.9333 15.5833 24.0833C15.5833 23.2333 16.15 22.6666 17 22.6666ZM9.91665 17C10.7666 17 11.3333 17.5666 11.3333 18.4166C11.3333 19.2666 10.7666 19.8333 9.91665 19.8333C9.06665 19.8333 8.49998 19.2666 8.49998 18.4166C8.49998 17.5666 9.06665 17 9.91665 17ZM9.91665 22.6666C10.7666 22.6666 11.3333 23.2333 11.3333 24.0833C11.3333 24.9333 10.7666 25.5 9.91665 25.5C9.06665 25.5 8.49998 24.9333 8.49998 24.0833C8.49998 23.2333 9.06665 22.6666 9.91665 22.6666Z" fill="#352D39"/>
</svg>
