<?xml version="1.0" encoding="UTF-8"?><svg id="b" xmlns="http://www.w3.org/2000/svg" xmlns:xlink="http://www.w3.org/1999/xlink" viewBox="0 0 1081.67 631.57"><defs><style>.f{fill:#fff;}.g{fill:url(#e);}.h{fill:url(#d);}</style><linearGradient id="d" x1="406.83" y1="72.76" x2="539.5" y2="403.11" gradientUnits="userSpaceOnUse"><stop offset="0" stop-color="red"/><stop offset="1" stop-color="#890000"/></linearGradient><linearGradient id="e" x1="670.57" y1="76.61" x2="564.18" y2="397.31" xlink:href="#d"/></defs><g id="c"><g><g><path class="h" d="M543,420.64l-123.79-81.63c-7.66-5.05-14.44-11.33-19.96-18.65-2.47-3.28-4.92-6.66-7.34-10.14-38.17-54.94-52.46-112.32-57.52-156.1C354.71,76.64,417.68,16.43,496.69,.09c-10.52,38.38-21.45,90.8-23.51,150.05-2.59,74.13,8.72,158.94,52.12,240.34,5.61,10.52,11.53,20.57,17.7,30.16Z"/><path class="g" d="M748.29,166.17h0c-6.21,41.97-21.17,94.02-55.93,144.05-3.18,4.57-6.41,8.97-9.68,13.19-5.42,7-11.99,13.02-19.37,17.9h0s-87.02,57.38-87.02,57.38l-33.27,21.95c4.56-7.4,8.97-15.06,13.2-22.99,5.23-9.8,9.99-19.66,14.31-29.54,31.58-72.09,40.07-145.5,37.82-210.66-2.18-63.13-14.45-118.52-25.55-157.45,83.26,17.05,148.78,82.79,165.49,166.17Z"/><path class="f" d="M570.53,368.11c-3.28-15.18-7.31-30.87-12.24-46.99-21.24-69.36-52.98-126.22-85.11-170.98,2.06-59.25,12.99-111.67,23.51-150.05,34.11,35.05,77.21,87.28,111.66,157.36,2.25,65.16-6.24,138.57-37.82,210.66Z"/></g><g><path class="f" d="M13.25,584.62v-123.04h28.81l42.06,67.56,15.73,33.12h-5.63l-4.97-46.53v-54.15h27.99v123.04h-30.97l-39.91-65.91-18.05-37.76h6.79l6.13,50.51v53.16H13.25Z"/><path class="f" d="M194.41,585.95c-12.14,.22-22.51-2.25-31.09-7.41-8.58-5.16-15.1-12.53-19.54-22.11-4.44-9.58-6.56-20.88-6.33-33.91,.28-14.57,2.97-26.37,8.07-35.4,5.1-9.03,12.07-15.68,20.91-19.96,8.83-4.28,18.93-6.58,30.3-6.91,11.65-.33,21.64,2.03,29.97,7.08,8.33,5.05,14.7,12.32,19.08,21.82,4.39,9.5,6.47,20.73,6.25,33.7-.28,14.57-2.87,26.47-7.78,35.69-4.91,9.22-11.65,16.04-20.2,20.45-8.56,4.42-18.44,6.73-29.64,6.96Zm.5-22.19c7.95,0,14.21-3.21,18.8-9.65,4.58-6.43,6.87-17.13,6.87-32.08,0-7.73-.88-14.52-2.65-20.37-1.77-5.85-4.44-10.4-8.03-13.66-3.59-3.26-8.14-4.88-13.66-4.88-5.02,0-9.6,1.24-13.74,3.73-4.14,2.48-7.44,6.65-9.89,12.5-2.46,5.85-3.68,13.86-3.68,24.01,0,7.84,.97,14.79,2.9,20.87,1.93,6.07,4.82,10.85,8.65,14.32,3.84,3.48,8.65,5.22,14.45,5.22Z"/><path class="f" d="M265.95,523.68c0-11.37,1.63-21.08,4.89-29.15,3.26-8.06,7.78-14.61,13.58-19.66s12.54-8.75,20.24-11.1c7.7-2.35,15.99-3.52,24.88-3.52,6.02,0,11.07,.29,15.15,.87,4.08,.58,7.7,1.24,10.85,1.99s6.29,1.39,9.44,1.95l-.83,25.83c-3.2-1.66-7.49-3.15-12.88-4.47-5.38-1.32-12.19-1.99-20.41-1.99-7.12,0-13.18,1.48-18.17,4.43-5,2.95-8.82,7.2-11.47,12.75-2.65,5.55-3.97,12.19-3.97,19.91s1.09,15.04,3.27,21.28c2.18,6.24,5.37,11.15,9.56,14.74,4.19,3.59,9.36,5.38,15.48,5.38,4.31,0,7.87-.23,10.68-.7,2.81-.47,5.22-1.06,7.2-1.78v-25.01l2.98,3.64-20.53-1.49v-22.02h45.71v62.1c-2.37,.06-4.8,.51-7.29,1.37-2.48,.86-5.35,1.82-8.61,2.9-3.26,1.08-7.26,2.02-12.01,2.82-4.75,.8-10.63,1.2-17.64,1.2-12.2,0-22.8-2.46-31.79-7.37-9-4.91-15.97-12.02-20.91-21.32-4.94-9.3-7.41-20.49-7.41-33.57Z"/><path class="f" d="M411.67,584.62h-32.29l42.89-123.87h34.94l43.22,123.87h-32.62l-24.67-82.96-3.97-16.06-4.14,16.06-23.35,82.96Zm-5.46-23.02l3.48-21.53h56.47l3.31,21.53h-63.26Z"/><path class="f" d="M512.19,584.62v-123.04h11.43c2.04,0,4.98-.11,8.82-.33,3.84-.22,7.98-.44,12.42-.66,4.44-.22,8.57-.33,12.38-.33,20.87,0,36.15,5.22,45.87,15.65,9.71,10.43,14.57,25.14,14.57,44.13,0,13.97-2.46,25.88-7.37,35.73-4.91,9.85-12.01,17.36-21.28,22.52-9.27,5.16-20.48,7.71-33.62,7.66-6.02-.11-11.72-.36-17.1-.75-5.38-.39-10.45-.58-15.19-.58h-10.93Zm30.97-22.69c1.6,.5,3.67,.84,6.21,1.04,2.54,.19,5.16,.29,7.87,.29,5.74-.05,10.75-1.52,15.03-4.39,4.28-2.87,7.59-7.29,9.94-13.25,2.35-5.96,3.52-13.61,3.52-22.94,0-9.88-1.08-17.76-3.23-23.64s-5.42-10.11-9.81-12.71-9.92-3.89-16.6-3.89c-2.04,0-4.33,.12-6.87,.37-2.54,.25-4.55,.51-6.04,.79v78.33Z"/><path class="f" d="M651.95,584.62h-32.29l42.89-123.87h34.94l43.22,123.87h-32.62l-24.67-82.96-3.97-16.06-4.14,16.06-23.35,82.96Zm-5.46-23.02l3.48-21.53h56.47l3.31,21.53h-63.26Z"/><path class="f" d="M780.45,584.29l-.17-9.27c2.32,.33,4.6,.58,6.83,.75s4.43,.25,6.58,.25c8.94,0,16.57-.96,22.89-2.9,6.32-1.93,11.15-4.79,14.49-8.57,3.34-3.78,5.01-8.4,5.01-13.87,0-4.86-1.12-9.29-3.35-13.29-2.24-4-5.67-7.05-10.31-9.15-4.64-2.1-10.57-2.73-17.8-1.9l-9.11,2.32-2.81-9.44c2.81-.61,5.42-1.27,7.82-1.99,2.4-.72,4.76-1.49,7.08-2.32,7.4-2.65,12.98-6.24,16.77-10.76,3.78-4.53,5.7-9.27,5.75-14.24,.11-6.57-1.9-11.36-6.04-14.37-4.14-3.01-9.36-4.51-15.65-4.51-6.62,0-12.24,1.16-16.85,3.48-4.61,2.32-8.21,4.47-10.81,6.46l-5.3-7.78c2.04-1.77,4.8-3.64,8.28-5.63s7.42-3.67,11.84-5.05c4.42-1.38,9.08-2.07,13.99-2.07,6.07,0,11.67,1.02,16.81,3.06,5.13,2.04,9.25,5.12,12.34,9.23,3.09,4.11,4.64,9.29,4.64,15.53,0,5.3-1.31,10.1-3.93,14.41-2.62,4.31-6.09,8.03-10.39,11.18-4.31,3.15-8.97,5.6-13.99,7.37l-.17-1.99c7.45-.22,13.79,1.13,19,4.06,5.22,2.93,9.18,6.76,11.88,11.51,2.7,4.75,4.06,9.72,4.06,14.9,0,7.4-2.13,13.8-6.38,19.21-4.25,5.41-10.38,9.58-18.38,12.5-8,2.93-17.64,4.39-28.9,4.39-2.48,0-5.04-.12-7.66-.37-2.62-.25-5.31-.62-8.07-1.12Z"/><path class="f" d="M872.52,538.58c0-8.67,1.3-16.81,3.89-24.42,2.59-7.62,6.13-14.6,10.6-20.95,4.47-6.35,9.56-11.95,15.28-16.81,5.71-4.86,11.73-8.87,18.05-12.05,6.32-3.17,12.57-5.37,18.75-6.58l3.81,8.78c-8.28,2.15-15.8,5.49-22.56,10.02-6.76,4.53-12.6,9.83-17.51,15.9-4.91,6.07-8.72,12.57-11.43,19.5-2.71,6.93-4.14,13.87-4.31,20.82-.17,7.62,.62,14.75,2.36,21.4,1.74,6.65,4.72,12.03,8.94,16.15,4.22,4.11,9.95,6.17,17.18,6.17,6.24,0,11.36-1.68,15.36-5.05,4-3.37,6.97-7.6,8.9-12.71,1.93-5.11,2.9-10.28,2.9-15.53,0-6.79-1.06-12.21-3.19-16.27-2.13-4.06-4.87-6.97-8.24-8.74-3.37-1.77-6.9-2.65-10.6-2.65s-7.23,.55-10.1,1.66c-2.87,1.1-4.97,2.15-6.29,3.15l-3.81-8.11c1.1-1.1,2.77-2.22,5.01-3.35,2.24-1.13,4.88-2.07,7.95-2.82s6.42-1.12,10.06-1.12c7.01,0,12.96,1.68,17.84,5.05,4.88,3.37,8.6,7.74,11.14,13.12,2.54,5.38,3.81,11.14,3.81,17.26,0,5.8-.88,11.41-2.65,16.85-1.77,5.44-4.42,10.31-7.95,14.61-3.53,4.31-7.95,7.73-13.25,10.27-5.3,2.54-11.48,3.81-18.55,3.81-8.72,0-16.17-2.18-22.36-6.54-6.18-4.36-10.9-10.13-14.16-17.31-3.26-7.17-4.88-15.01-4.88-23.51Z"/><path class="f" d="M1025.37,585.61c-7.4,0-13.81-1.75-19.25-5.26-5.44-3.5-9.94-8.27-13.5-14.28-3.56-6.02-6.17-12.88-7.82-20.58-1.66-7.7-2.43-15.75-2.32-24.14,.17-12.53,2.15-23.39,5.96-32.58s9.05-16.3,15.73-21.32c6.68-5.02,14.41-7.53,23.18-7.53,7.56,0,14.03,1.61,19.42,4.84,5.38,3.23,9.76,7.69,13.12,13.37,3.37,5.69,5.82,12.28,7.37,19.79,1.54,7.51,2.26,15.54,2.15,24.09-.11,12.48-1.96,23.49-5.55,33.04s-8.65,17.03-15.19,22.44c-6.54,5.41-14.31,8.11-23.31,8.11Zm.5-12.42c9.55,.22,16.97-4.11,22.27-13,5.3-8.89,7.98-21.44,8.03-37.67,.05-10.05-.91-18.82-2.9-26.33-1.99-7.51-5.16-13.33-9.52-17.47-4.36-4.14-10.1-6.21-17.22-6.21-9.33,0-16.77,4.22-22.31,12.67-5.55,8.45-8.38,20.29-8.49,35.52-.06,9.77,.96,18.6,3.06,26.5,2.1,7.89,5.37,14.17,9.81,18.84,4.44,4.67,10.2,7.05,17.26,7.16Z"/></g></g></g></svg>